<svg width="318" height="251" viewBox="0 0 318 251" fill="none" xmlns="http://www.w3.org/2000/svg">
<path d="M317.053 221.859H0V222.018H317.053V221.859Z" fill="#EBEBEB"/>
<path d="M150.283 193.578H27.8429C26.8837 193.577 25.9644 193.195 25.2868 192.516C24.6091 191.837 24.2285 190.917 24.2285 189.958V17.842C24.2369 16.8883 24.6212 15.9764 25.2979 15.3044C25.9747 14.6324 26.8892 14.2546 27.8429 14.2529H150.283C151.243 14.2529 152.164 14.6344 152.843 15.3134C153.522 15.9924 153.903 16.9134 153.903 17.8737V189.958C153.903 190.918 153.522 191.839 152.843 192.518C152.164 193.197 151.243 193.578 150.283 193.578ZM27.8429 14.3798C26.9258 14.3814 26.0468 14.7469 25.3989 15.3961C24.7509 16.0452 24.387 16.9248 24.387 17.842V189.958C24.387 190.875 24.7509 191.754 25.3989 192.404C26.0468 193.053 26.9258 193.418 27.8429 193.42H150.283C151.2 193.418 152.08 193.053 152.729 192.404C153.378 191.755 153.743 190.875 153.745 189.958V17.842C153.743 16.9243 153.378 16.0446 152.729 15.3957C152.08 14.7467 151.2 14.3814 150.283 14.3798H27.8429Z" fill="#EBEBEB"/>
<path d="M287.448 193.578H165.002C164.042 193.577 163.122 193.195 162.443 192.516C161.765 191.837 161.383 190.917 161.381 189.958V17.842C161.391 16.8877 161.777 15.9758 162.454 15.304C163.132 14.6322 164.047 14.2545 165.002 14.2529H287.448C288.4 14.2562 289.313 14.6348 289.989 15.3066C290.664 15.9785 291.047 16.8894 291.056 17.842V189.958C291.056 190.916 290.676 191.835 290 192.513C289.323 193.192 288.406 193.575 287.448 193.578ZM165.002 14.3798C164.084 14.3814 163.204 14.7467 162.555 15.3957C161.906 16.0446 161.541 16.9243 161.539 17.842V189.958C161.541 190.875 161.906 191.755 162.555 192.404C163.204 193.053 164.084 193.418 165.002 193.42H287.448C288.365 193.418 289.245 193.053 289.894 192.404C290.543 191.755 290.908 190.875 290.91 189.958V17.842C290.908 16.9243 290.543 16.0446 289.894 15.3957C289.245 14.7467 288.365 14.3814 287.448 14.3798H165.002Z" fill="#EBEBEB"/>
<path d="M127.1 227.896H110.613V228.055H127.1V227.896Z" fill="#EBEBEB"/>
<path d="M67.5708 226.178H33.2656V226.336H67.5708V226.178Z" fill="#EBEBEB"/>
<path d="M109.98 233.787H93.29V233.946H109.98V233.787Z" fill="#EBEBEB"/>
<path d="M188.367 232.722H163.745V232.88H188.367V232.722Z" fill="#EBEBEB"/>
<path d="M200.79 232.722H194.012V232.88H200.79V232.722Z" fill="#EBEBEB"/>
<path d="M285.291 230.046H250.694V230.204H285.291V230.046Z" fill="#EBEBEB"/>
<path d="M73.3283 79.9907H120.252C121.206 79.9907 122.12 80.3695 122.795 81.0438C123.469 81.7181 123.848 82.6326 123.848 83.5861V221.859H69.752V83.5798C69.7536 82.6306 70.1305 81.7206 70.8005 81.0482C71.4705 80.3759 72.3792 79.9957 73.3283 79.9907Z" fill="#F5F5F5"/>
<path d="M81.2037 88.3735H74.2285V103.903H81.2037V88.3735Z" fill="#EBEBEB"/>
<path d="M119.351 88.3735H112.376V103.903H119.351V88.3735Z" fill="#EBEBEB"/>
<path d="M93.9176 88.3735H86.9424V103.903H93.9176V88.3735Z" fill="#EBEBEB"/>
<path d="M106.638 88.3735H99.6631V103.903H106.638V88.3735Z" fill="#EBEBEB"/>
<path d="M81.2037 112.888H74.2285V128.417H81.2037V112.888Z" fill="#EBEBEB"/>
<path d="M119.351 112.888H112.376V128.417H119.351V112.888Z" fill="#EBEBEB"/>
<path d="M93.9176 112.888H86.9424V128.417H93.9176V112.888Z" fill="#EBEBEB"/>
<path d="M106.638 112.888H99.6631V128.417H106.638V112.888Z" fill="#EBEBEB"/>
<path d="M81.2037 137.403H74.2285V152.932H81.2037V137.403Z" fill="#EBEBEB"/>
<path d="M119.351 137.403H112.376V152.932H119.351V137.403Z" fill="#EBEBEB"/>
<path d="M93.9176 137.403H86.9424V152.932H93.9176V137.403Z" fill="#EBEBEB"/>
<path d="M106.638 137.403H99.6631V152.932H106.638V137.403Z" fill="#EBEBEB"/>
<path d="M81.2037 161.917H74.2285V177.447H81.2037V161.917Z" fill="#EBEBEB"/>
<path d="M119.351 161.917H112.376V177.447H119.351V161.917Z" fill="#EBEBEB"/>
<path d="M93.9176 161.917H86.9424V177.447H93.9176V161.917Z" fill="#EBEBEB"/>
<path d="M106.638 161.917H99.6631V177.447H106.638V161.917Z" fill="#EBEBEB"/>
<path d="M81.2037 186.432H74.2285V201.961H81.2037V186.432Z" fill="#EBEBEB"/>
<path d="M119.351 186.432H112.376V201.961H119.351V186.432Z" fill="#EBEBEB"/>
<path d="M93.9176 186.432H86.9424V201.961H93.9176V186.432Z" fill="#EBEBEB"/>
<path d="M106.638 186.432H99.6631V201.961H106.638V186.432Z" fill="#EBEBEB"/>
<path d="M239.692 92.8818H273.3C273.684 92.8818 274.064 92.9575 274.419 93.1044C274.773 93.2513 275.096 93.4666 275.367 93.738C275.638 94.0095 275.854 94.3317 276.001 94.6864C276.148 95.0411 276.223 95.4212 276.223 95.8051V221.859H236.801V95.8114C236.799 95.0405 237.102 94.3001 237.644 93.7514C238.185 93.2027 238.921 92.8902 239.692 92.8818Z" fill="#F5F5F5"/>
<path d="M248.139 100.504H241.798V114.619H248.139V100.504Z" fill="#EBEBEB"/>
<path d="M259.698 100.504H253.357V114.619H259.698V100.504Z" fill="#EBEBEB"/>
<path d="M271.259 100.504H264.918V114.619H271.259V100.504Z" fill="#EBEBEB"/>
<path d="M248.139 122.793H241.798V136.908H248.139V122.793Z" fill="#EBEBEB"/>
<path d="M259.698 122.793H253.357V136.908H259.698V122.793Z" fill="#EBEBEB"/>
<path d="M271.259 122.793H264.918V136.908H271.259V122.793Z" fill="#EBEBEB"/>
<path d="M248.139 145.082H241.798V159.197H248.139V145.082Z" fill="#EBEBEB"/>
<path d="M259.698 145.082H253.357V159.197H259.698V145.082Z" fill="#EBEBEB"/>
<path d="M271.259 145.082H264.918V159.197H271.259V145.082Z" fill="#EBEBEB"/>
<path d="M248.139 167.364H241.798V181.479H248.139V167.364Z" fill="#EBEBEB"/>
<path d="M259.698 167.364H253.357V181.479H259.698V167.364Z" fill="#EBEBEB"/>
<path d="M271.259 167.364H264.918V181.479H271.259V167.364Z" fill="#EBEBEB"/>
<path d="M248.139 189.653H241.798V203.769H248.139V189.653Z" fill="#EBEBEB"/>
<path d="M259.698 189.653H253.357V203.769H259.698V189.653Z" fill="#EBEBEB"/>
<path d="M271.259 189.653H264.918V203.769H271.259V189.653Z" fill="#EBEBEB"/>
<path d="M162.705 56.8076H217.295C218.404 56.8076 219.467 57.2479 220.25 58.0316C221.034 58.8152 221.474 59.8781 221.474 60.9864V221.859H158.526V60.9864C158.526 59.8781 158.967 58.8152 159.75 58.0316C160.534 57.2479 161.597 56.8076 162.705 56.8076Z" fill="#F5F5F5"/>
<path d="M171.869 66.5605H163.752V84.6263H171.869V66.5605Z" fill="#EBEBEB"/>
<path d="M216.249 66.5605H208.133V84.6263H216.249V66.5605Z" fill="#EBEBEB"/>
<path d="M186.661 66.5605H178.545V84.6263H186.661V66.5605Z" fill="#EBEBEB"/>
<path d="M201.456 66.5605H193.34V84.6263H201.456V66.5605Z" fill="#EBEBEB"/>
<path d="M171.869 95.0825H163.752V113.148H171.869V95.0825Z" fill="#EBEBEB"/>
<path d="M216.249 95.0825H208.133V113.148H216.249V95.0825Z" fill="#EBEBEB"/>
<path d="M186.661 95.0825H178.545V113.148H186.661V95.0825Z" fill="#EBEBEB"/>
<path d="M201.456 95.0825H193.34V113.148H201.456V95.0825Z" fill="#EBEBEB"/>
<path d="M171.869 123.604H163.752V141.67H171.869V123.604Z" fill="#EBEBEB"/>
<path d="M216.249 123.604H208.133V141.67H216.249V123.604Z" fill="#EBEBEB"/>
<path d="M186.661 123.604H178.545V141.67H186.661V123.604Z" fill="#EBEBEB"/>
<path d="M201.456 123.604H193.34V141.67H201.456V123.604Z" fill="#EBEBEB"/>
<path d="M171.869 152.126H163.752V170.192H171.869V152.126Z" fill="#EBEBEB"/>
<path d="M216.249 152.126H208.133V170.192H216.249V152.126Z" fill="#EBEBEB"/>
<path d="M186.661 152.126H178.545V170.192H186.661V152.126Z" fill="#EBEBEB"/>
<path d="M201.456 152.126H193.34V170.192H201.456V152.126Z" fill="#EBEBEB"/>
<path d="M171.869 180.643H163.752V198.708H171.869V180.643Z" fill="#EBEBEB"/>
<path d="M216.249 180.643H208.133V198.708H216.249V180.643Z" fill="#EBEBEB"/>
<path d="M186.661 180.643H178.545V198.708H186.661V180.643Z" fill="#EBEBEB"/>
<path d="M201.456 180.643H193.34V198.708H201.456V180.643Z" fill="#EBEBEB"/>
<path d="M158.527 115.919H123.848V221.86H158.527V115.919Z" fill="#E6E6E6"/>
<path d="M236.8 127.263H221.48V221.859H236.8V127.263Z" fill="#E6E6E6"/>
<path d="M69.7331 221.859H39.3848V177.63L69.7331 167.364V221.859Z" fill="#E6E6E6"/>
<path d="M266.959 39.224C271.924 35.0833 282.026 27.0048 273.338 25.8507C264.993 24.741 252.698 29.6237 248.773 33.9102C248.773 29.8075 246.839 25.9014 239.471 22.7436C228.133 17.8736 226.376 35.5716 226.972 38.8182C222.413 36.6305 208.019 37.0364 217.943 43.2062H268.316C268.316 43.2062 278.716 36.7066 266.959 39.224Z" fill="#F5F5F5"/>
<path d="M39.695 60.5428C39.6569 58.1839 39.4033 53.5676 43.5757 52.9335C47.5833 52.2994 50.3036 55.0832 49.847 57.5245C51.8508 55.1846 54.5521 52.9652 59.1557 51.1834C66.2514 48.406 58.3567 58.4883 56.5178 60.3399C59.4791 59.0717 65.2622 59.319 58.1285 62.832H37.2029C37.2029 62.832 36.0552 59.1034 39.695 60.5428Z" fill="#FAFAFA"/>
<path d="M127.5 32.5532H60.0947C60.0947 32.5532 64.0008 27.81 70.1009 29.3065C67.2284 25.6477 65.7002 11.932 75.3133 10.2199C80.2023 9.35117 85.9726 18.2414 86.0931 22.902C88.5027 11.7481 95.1609 -2.4242 105.383 0.353192C115.604 3.13058 107.684 23.3713 107.684 23.3713C107.684 23.3713 117.507 9.06582 125.661 15.4132C130.519 19.2179 121.4 27.8925 121.4 27.8925C121.4 27.8925 132.567 27.81 127.5 32.5532Z" fill="#F5F5F5"/>
<path d="M158.527 250.496C226.429 250.496 281.474 247.282 281.474 243.318C281.474 239.353 226.429 236.14 158.527 236.14C90.6253 236.14 35.5801 239.353 35.5801 243.318C35.5801 247.282 90.6253 250.496 158.527 250.496Z" fill="#F5F5F5"/>
<path d="M125.674 194.738C122.128 194.815 118.753 196.277 116.273 198.812C113.792 201.347 112.403 204.752 112.403 208.299C112.403 211.845 113.792 215.251 116.273 217.785C118.753 220.32 122.128 221.782 125.674 221.859H128.388V194.738H125.674Z" fill="#263238"/>
<path d="M224.474 194.739C222.669 194.699 220.873 195.021 219.194 195.685C217.515 196.349 215.985 197.342 214.694 198.605C213.403 199.868 212.378 201.376 211.678 203.041C210.978 204.705 210.617 206.493 210.617 208.299C210.617 210.105 210.978 211.892 211.678 213.557C212.378 215.222 213.403 216.73 214.694 217.993C215.985 219.256 217.515 220.249 219.194 220.913C220.873 221.576 222.669 221.898 224.474 221.859H227.182V194.739H224.474Z" fill="#263238"/>
<path d="M179.706 221.853C187.193 221.853 193.263 215.783 193.263 208.295C193.263 200.808 187.193 194.738 179.706 194.738C172.218 194.738 166.148 200.808 166.148 208.295C166.148 215.783 172.218 221.853 179.706 221.853Z" fill="#263238"/>
<path d="M80.899 221.853C88.3864 221.853 94.4562 215.783 94.4562 208.295C94.4562 200.808 88.3864 194.738 80.899 194.738C73.4116 194.738 67.3418 200.808 67.3418 208.295C67.3418 215.783 73.4116 221.853 80.899 221.853Z" fill="#263238"/>
<path d="M194.429 136.42H142.984V201.784H194.429V136.42Z" fill="#3CC7F5"/>
<path opacity="0.2" d="M194.429 136.42H142.984V201.784H194.429V136.42Z" fill="black"/>
<path d="M246.359 152.674L245.876 153.085L247.924 155.489L248.407 155.077L246.359 152.674Z" fill="#3CC7F5"/>
<path d="M238.013 142.865L237.53 143.276L243.91 150.762L244.392 150.35L238.013 142.865Z" fill="#3CC7F5"/>
<path d="M194.43 201.777H258.322V173.414C258.323 171.308 257.572 169.27 256.204 167.669L236.325 144.308C234.218 141.834 231.598 139.848 228.648 138.486C225.697 137.124 222.486 136.419 219.236 136.42H194.43V201.777Z" fill="#3CC7F5"/>
<path d="M204.898 170.719V146.686C204.898 146.168 205.001 145.656 205.199 145.177C205.397 144.699 205.688 144.265 206.054 143.899C206.42 143.533 206.855 143.243 207.334 143.046C207.812 142.848 208.325 142.747 208.843 142.748H214.962C218.164 142.748 221.329 143.443 224.236 144.785C227.144 146.128 229.726 148.085 231.804 150.522L246.838 168.163C247.442 168.87 247.775 169.769 247.777 170.699C247.777 171.744 247.362 172.747 246.624 173.486C245.885 174.226 244.884 174.642 243.839 174.644H208.843C207.8 174.644 206.799 174.231 206.06 173.495C205.321 172.76 204.903 171.761 204.898 170.719Z" fill="white"/>
<path d="M258.322 194.053H250.434C250.008 194.053 249.589 193.942 249.219 193.73C248.848 193.518 248.54 193.213 248.324 192.845C248.108 192.477 247.992 192.059 247.987 191.633C247.983 191.206 248.09 190.786 248.297 190.414L249.629 188.029C249.839 187.647 250.149 187.327 250.524 187.104C250.9 186.881 251.329 186.763 251.766 186.761H258.322V194.053Z" fill="white"/>
<path d="M183.073 125.437H58.7305V201.777H183.073V125.437Z" fill="#3CC7F5"/>
<path opacity="0.6" d="M183.073 125.437H58.7305V201.777H183.073V125.437Z" fill="white"/>
<path opacity="0.5" d="M113.562 190.141H92.4014V194.738H113.562V190.141Z" fill="#3CC7F5"/>
<path opacity="0.5" d="M64.5389 190.141H58.7305V194.738H64.5389V190.141Z" fill="#3CC7F5"/>
<path opacity="0.4" d="M101.685 125.437H58.7305V201.777H101.685V125.437Z" fill="#3CC7F5"/>
<path opacity="0.4" d="M78.033 125.437H77.3418V201.777H78.033V125.437Z" fill="#3CC7F5"/>
<path d="M258.944 201.777H58.1093C57.5349 201.777 57.0693 202.243 57.0693 202.817V206.032C57.0693 206.607 57.5349 207.072 58.1093 207.072H258.944C259.518 207.072 259.984 206.607 259.984 206.032V202.817C259.984 202.243 259.518 201.777 258.944 201.777Z" fill="#263238"/>
<path d="M227.194 221.853C234.681 221.853 240.751 215.783 240.751 208.295C240.751 200.808 234.681 194.738 227.194 194.738C219.706 194.738 213.637 200.808 213.637 208.295C213.637 215.783 219.706 221.853 227.194 221.853Z" fill="#263238"/>
<path d="M227.194 217.021C232.013 217.021 235.919 213.114 235.919 208.296C235.919 203.477 232.013 199.57 227.194 199.57C222.375 199.57 218.469 203.477 218.469 208.296C218.469 213.114 222.375 217.021 227.194 217.021Z" fill="white"/>
<path d="M128.387 221.853C135.875 221.853 141.944 215.783 141.944 208.295C141.944 200.808 135.875 194.738 128.387 194.738C120.9 194.738 114.83 200.808 114.83 208.295C114.83 215.783 120.9 221.853 128.387 221.853Z" fill="#263238"/>
<path d="M128.387 217.021C133.206 217.021 137.113 213.114 137.113 208.296C137.113 203.477 133.206 199.57 128.387 199.57C123.569 199.57 119.662 203.477 119.662 208.296C119.662 213.114 123.569 217.021 128.387 217.021Z" fill="white"/>
<path d="M146.061 237.795L140.671 237.713L139.206 225.214L144.59 225.303L146.061 237.795Z" fill="#3CC7F5"/>
<path d="M140.531 237.091L146.403 237.18C146.506 237.179 146.607 237.217 146.684 237.286C146.761 237.355 146.81 237.451 146.821 237.554L147.335 242.36C147.344 242.482 147.329 242.604 147.288 242.72C147.248 242.835 147.184 242.94 147.1 243.029C147.017 243.118 146.915 243.189 146.803 243.236C146.69 243.284 146.569 243.307 146.447 243.305C144.335 243.235 141.285 243.064 138.622 243.026C135.509 242.975 135.813 243.102 132.161 243.026C129.954 242.994 129.624 240.743 130.55 240.559C134.862 239.703 135.293 239.659 139.186 237.471C139.593 237.228 140.057 237.097 140.531 237.091Z" fill="#263238"/>
<path d="M135.268 76.7187C133.505 80.4853 131.616 84.0427 129.517 87.5937C128.464 89.3565 127.38 91.113 126.207 92.8377C125.636 93.7001 125.021 94.5562 124.412 95.4122C123.803 96.2683 123.144 97.1116 122.44 97.9486L121.92 98.5827C121.656 98.9088 121.373 99.218 121.07 99.5085C120.871 99.7041 120.659 99.8862 120.436 100.054C120.192 100.241 119.933 100.409 119.663 100.555C119.07 100.884 118.427 101.113 117.76 101.233C116.547 101.434 115.302 101.284 114.171 100.802C113.393 100.464 112.665 100.021 112.009 99.4832C111.019 98.6658 110.137 97.7262 109.384 96.6868C108.718 95.7857 108.1 94.8502 107.532 93.884C106.476 92.0521 105.533 90.1568 104.71 88.2087C103.896 86.2968 103.182 84.3431 102.573 82.3559C102.424 81.8441 102.464 81.2955 102.685 80.8105C102.907 80.3256 103.296 79.9367 103.781 79.715C104.266 79.4932 104.815 79.4536 105.326 79.6032C105.838 79.7528 106.279 80.0817 106.568 80.5297L106.606 80.5868C108.6 83.8737 110.772 87.049 113.112 90.0984C113.66 90.7926 114.244 91.4572 114.862 92.0895C115.358 92.6107 115.909 93.0763 116.505 93.4782C116.733 93.6113 116.917 93.6748 116.93 93.6494C116.942 93.624 116.701 93.5035 116.296 93.5479C116.025 93.594 115.767 93.6932 115.535 93.8396C115.503 93.8396 115.471 93.884 115.655 93.6304L116.048 93.066C118.164 89.8998 120.118 86.6278 121.901 83.2627C123.753 79.8639 125.573 76.3383 127.304 72.9204V72.857C127.819 71.7983 128.734 70.9878 129.847 70.6037C130.96 70.2196 132.18 70.2934 133.239 70.8088C134.298 71.3243 135.108 72.2392 135.492 73.3523C135.876 74.4654 135.803 75.6854 135.287 76.7441L135.268 76.7187Z" fill="#3CC7F5"/>
<path d="M106.777 82.1027L105.332 76.104L99.6943 78.5326C99.6943 78.5326 100.195 83.2948 104.133 83.8845L106.777 82.1027Z" fill="#263238"/>
<path d="M106.479 80.625C106.479 80.625 108.311 82.9839 108.761 83.6307C108.127 84.2648 103.974 86.3637 103.644 86.1671C103.118 84.6643 102.376 82.6795 102.376 82.6795L106.479 80.625Z" fill="#263238"/>
<path d="M101.115 72.2865L99.0413 74.2776C98.8772 74.4396 98.7604 74.6433 98.7034 74.8667C98.6464 75.0902 98.6514 75.325 98.7179 75.5458L99.6945 78.5071L105.332 76.0784L103.017 72.4957C102.914 72.3467 102.78 72.2215 102.624 72.1287C102.468 72.0359 102.294 71.9776 102.114 71.9578C101.933 71.938 101.751 71.957 101.579 72.0137C101.406 72.0704 101.248 72.1635 101.115 72.2865Z" fill="#263238"/>
<path d="M104.31 79.2935C104.114 78.076 105.331 74.2587 106.352 73.7133C107.373 73.168 106.789 75.7995 106.923 76.6873C107.29 79.1223 107.417 81.4431 106.168 81.3163C104.919 81.1894 104.627 81.4114 104.31 79.2935Z" fill="#263238"/>
<path opacity="0.2" d="M139.206 225.221L139.961 231.663L145.351 231.746L144.596 225.303L139.206 225.221Z" fill="black"/>
<path d="M130.912 69.5218C141.159 68.2536 151.076 69.6233 156.479 70.6695C157.023 70.776 157.541 70.9898 158.002 71.2984C158.462 71.607 158.857 72.0042 159.163 72.467C159.469 72.9297 159.679 73.4487 159.782 73.9936C159.885 74.5385 159.879 75.0985 159.763 75.6409C155.743 94.8544 156.371 114.182 156.035 118.291L127.221 117.828C125.249 94.271 126.492 79.268 127.253 73.1489C127.372 72.2233 127.796 71.3639 128.459 70.7068C129.122 70.0498 129.985 69.6328 130.912 69.5218Z" fill="#3CC7F5"/>
<path d="M149.111 55.9395C148.198 59.8138 147.158 66.9539 149.821 69.782C147.602 71.7477 144.71 73.9925 140.024 73.8086C135.338 73.6247 136.277 70.4795 137.577 68.8752C142.015 68.1524 142.015 64.8931 141.381 61.7859L149.111 55.9395Z" fill="#FFB573"/>
<path opacity="0.2" d="M145.952 58.3232L141.361 61.8108C141.524 62.5321 141.624 63.2662 141.659 64.0048C143.346 63.8907 145.718 62.223 145.965 60.4855C146.093 59.77 146.088 59.0372 145.952 58.3232Z" fill="black"/>
<path d="M150.417 50.0611C149.738 55.3559 149.618 58.4947 146.745 61.0248C142.433 64.8295 136.022 61.9062 135.097 56.5036C134.266 51.6337 135.509 43.8215 140.861 42.0587C142.046 41.6761 143.308 41.6004 144.53 41.8385C145.753 42.0767 146.894 42.6209 147.849 43.4204C148.804 44.2198 149.54 45.2483 149.989 46.4097C150.438 47.5711 150.585 48.8274 150.417 50.0611Z" fill="#FFB573"/>
<path d="M150.727 54.6582C148.635 55.9264 146.244 55.2923 146.048 53.9607C145.851 52.629 147.405 50.3272 147.988 49.2049C147.823 47.3025 146.479 46.7445 146.72 45.4002C145.154 45.5461 136.612 45.9329 136.815 44.0052C137.018 42.0775 140.404 40.0927 144.424 40.5937C148.445 41.0946 151.076 42.8448 150.696 45.2924C152.94 44.931 153.974 48.7293 150.727 54.6582Z" fill="#263238"/>
<path d="M152.598 55.4702C152.243 56.0333 151.78 56.5206 151.236 56.9037C150.692 57.2868 150.077 57.5582 149.427 57.7023C147.69 58.0764 146.891 56.4975 147.468 54.9122C147.969 53.4791 149.478 51.5641 151.19 51.9002C151.563 51.9778 151.91 52.1469 152.201 52.3922C152.492 52.6375 152.718 52.9513 152.857 53.3053C152.997 53.6594 153.046 54.0426 153.001 54.4205C152.956 54.7984 152.817 55.1592 152.598 55.4702Z" fill="#FFB573"/>
<path d="M143.942 171.296C143.727 144.207 149.719 118.19 149.719 118.19L127.259 117.828C127.259 117.828 129.84 156.953 130.74 173.344C131.672 190.383 137.829 230.414 137.829 230.414L146.948 230.547C146.948 230.547 145.21 192.678 143.942 171.296Z" fill="#3CC7F5"/>
<path opacity="0.4" d="M143.942 171.296C143.727 144.207 149.719 118.19 149.719 118.19L127.259 117.828C127.259 117.828 129.84 156.953 130.74 173.344C131.672 190.383 137.829 230.414 137.829 230.414L146.948 230.547C146.948 230.547 145.21 192.678 143.942 171.296Z" fill="black"/>
<path opacity="0.2" d="M144.817 133.098C138.412 141.861 141.291 158.348 143.917 170.003C144.021 157.152 145.113 144.329 147.182 131.646L144.817 133.098Z" fill="black"/>
<path d="M136.612 226.863L137.202 230.579L147.284 230.75L147.855 227.237L136.612 226.863Z" fill="#263238"/>
<path d="M143.308 50.9491C143.308 51.3803 143.029 51.7164 142.744 51.691C142.459 51.6657 142.256 51.3042 142.287 50.873C142.319 50.4418 142.566 50.1058 142.852 50.1248C143.137 50.1438 143.359 50.5116 143.308 50.9491Z" fill="#263238"/>
<path d="M137.721 50.3212C137.721 50.7587 137.442 51.0885 137.157 51.0694C136.872 51.0504 136.669 50.6763 136.701 50.2451C136.732 49.8139 136.98 49.4778 137.265 49.4969C137.55 49.5159 137.753 49.89 137.721 50.3212Z" fill="#263238"/>
<path d="M138.869 50.6699C138.267 51.9558 137.488 53.151 136.555 54.2209C136.837 54.4542 137.166 54.6236 137.519 54.7178C137.873 54.8119 138.242 54.8284 138.603 54.7663L138.869 50.6699Z" fill="#ED893E"/>
<path d="M140.366 56.3007C140.854 56.2768 141.331 56.1517 141.768 55.9334C142.204 55.7151 142.591 55.4083 142.902 55.0325C142.923 55.0056 142.931 54.9718 142.927 54.9385C142.922 54.9052 142.904 54.8751 142.877 54.855C142.85 54.8348 142.816 54.8261 142.783 54.8309C142.75 54.8356 142.72 54.8534 142.7 54.8803C142.343 55.284 141.895 55.597 141.393 55.7933C140.892 55.9895 140.35 56.0635 139.814 56.009C139.795 56.0047 139.775 56.0048 139.755 56.0093C139.736 56.0138 139.718 56.0227 139.702 56.0351C139.687 56.0476 139.674 56.0634 139.665 56.0814C139.657 56.0994 139.652 56.1191 139.652 56.139C139.652 56.159 139.657 56.1786 139.665 56.1966C139.674 56.2146 139.687 56.2304 139.702 56.2429C139.718 56.2554 139.736 56.2642 139.755 56.2687C139.775 56.2732 139.795 56.2733 139.814 56.269C139.997 56.2917 140.182 56.3023 140.366 56.3007Z" fill="#263238"/>
<path d="M144.221 49.4969C144.264 49.4961 144.306 49.4829 144.342 49.4588C144.37 49.4403 144.394 49.4163 144.413 49.3884C144.432 49.3604 144.445 49.329 144.451 49.2959C144.458 49.2629 144.458 49.2288 144.451 49.1958C144.444 49.1628 144.431 49.1315 144.412 49.1037C144.199 48.7569 143.906 48.4664 143.557 48.2567C143.208 48.047 142.814 47.9243 142.408 47.8989C142.341 47.8989 142.276 47.9256 142.229 47.9732C142.181 48.0208 142.154 48.0853 142.154 48.1526C142.154 48.2215 142.182 48.2877 142.23 48.3364C142.279 48.3852 142.345 48.4126 142.414 48.4126C142.734 48.4392 143.043 48.541 143.317 48.7096C143.59 48.8781 143.819 49.1088 143.987 49.3827C144.012 49.4212 144.047 49.4522 144.088 49.4723C144.13 49.4924 144.176 49.5009 144.221 49.4969Z" fill="#263238"/>
<path d="M135.319 48.3112C135.36 48.3171 135.401 48.3127 135.44 48.2983C135.479 48.2839 135.513 48.26 135.541 48.2288C135.743 47.9804 136.001 47.7839 136.295 47.6559C136.588 47.528 136.908 47.4722 137.227 47.4932C137.294 47.5005 137.362 47.4814 137.415 47.44C137.468 47.3986 137.503 47.3381 137.513 47.2713C137.517 47.2379 137.515 47.204 137.506 47.1716C137.497 47.1391 137.482 47.1087 137.461 47.0821C137.441 47.0556 137.415 47.0334 137.386 47.0169C137.356 47.0004 137.324 46.9899 137.291 46.9859C136.888 46.9561 136.484 47.0228 136.112 47.1805C135.741 47.3382 135.412 47.5824 135.154 47.8927C135.111 47.9442 135.091 48.0103 135.097 48.0768C135.103 48.1432 135.135 48.2047 135.185 48.2478C135.221 48.2835 135.268 48.3059 135.319 48.3112Z" fill="#263238"/>
<path d="M174.608 237.795L169.212 237.713L166.992 225.214L172.388 225.303L174.608 237.795Z" fill="#3CC7F5"/>
<path d="M168.92 237.091L174.792 237.18C174.897 237.18 174.998 237.218 175.077 237.287C175.156 237.356 175.208 237.45 175.223 237.554L175.901 242.361C175.917 242.48 175.907 242.602 175.871 242.717C175.835 242.833 175.775 242.939 175.694 243.028C175.613 243.118 175.514 243.189 175.403 243.237C175.292 243.285 175.172 243.308 175.052 243.305C172.934 243.236 172.268 243.065 169.605 243.026C166.485 242.976 167.931 243.103 164.272 243.026C162.065 242.995 161.634 240.756 162.573 240.56C165.54 239.926 166.282 238.74 167.588 237.472C167.966 237.176 168.443 237.04 168.92 237.091Z" fill="#263238"/>
<path d="M170.042 237.655C169.11 237.687 168.609 237.655 168.368 237.231C168.127 236.806 167.284 235.569 167.347 235.106C167.411 234.643 171.196 234.263 171.57 235.011C171.944 235.759 171.944 237.605 170.042 237.655Z" fill="#263238"/>
<path d="M140.328 237.655C139.745 237.687 139.434 237.655 139.294 237.23C139.005 236.551 138.804 235.837 138.698 235.106C138.743 234.637 141.121 234.263 141.342 235.011C141.564 235.759 141.514 237.605 140.328 237.655Z" fill="#263238"/>
<path opacity="0.2" d="M166.992 225.221L168.14 231.663L173.536 231.746L172.388 225.303L166.992 225.221Z" fill="black"/>
<path d="M165.382 168.094C162.846 143.694 159.865 123.706 156.048 118.291L136.968 117.987C136.968 117.987 148.096 156.262 152.383 172.393C156.822 189.165 165.579 228.791 165.579 228.791L174.266 228.911C174.266 228.911 170.671 187.155 165.382 168.094Z" fill="#3CC7F5"/>
<path opacity="0.4" d="M165.382 168.094C162.846 143.694 159.865 123.706 156.048 118.291L136.968 117.987C136.968 117.987 148.096 156.262 152.383 172.393C156.822 189.165 165.579 228.791 165.579 228.791L174.266 228.911C174.266 228.911 170.671 187.155 165.382 168.094Z" fill="black"/>
<path d="M164.487 226.863L165.191 230.579L174.944 230.75L175.375 227.237L164.487 226.863Z" fill="#263238"/>
<path d="M143.416 77.7273C143.359 76.3703 141.799 74.5567 140.784 73.8148C148.298 71.7413 149.706 69.0146 149.706 69.0146C150.246 69.1551 150.764 69.3684 151.247 69.6488C151.691 73.8592 146.478 76.7571 143.416 77.7273Z" fill="white"/>
<path d="M138.983 73.7069C137.298 74.4911 135.915 75.805 135.046 77.4482C131.919 71.868 136.314 68.6468 136.314 68.6468C136.8 68.5094 137.31 68.4749 137.81 68.5453C136.967 70.4096 137.937 72.8636 138.983 73.7069Z" fill="white"/>
<path d="M183.593 80.1567L135.86 87.5376L141.209 122.129L188.942 114.748L183.593 80.1567Z" fill="#3CC7F5"/>
<path opacity="0.9" d="M183.593 80.1567L135.86 87.5376L141.209 122.129L188.942 114.748L183.593 80.1567Z" fill="white"/>
<path opacity="0.2" d="M183.596 80.1536L158.711 84.0015L164.06 118.593L188.944 114.745L183.596 80.1536Z" fill="#3CC7F5"/>
<path opacity="0.3" d="M148.804 111.209L142.813 112.136L143.717 117.976L149.707 117.05L148.804 111.209Z" fill="#3CC7F5"/>
<path opacity="0.3" d="M147.684 103.963L141.693 104.89L142.596 110.73L148.587 109.804L147.684 103.963Z" fill="#3CC7F5"/>
<path opacity="0.5" d="M151.245 85.1606L142.798 86.4668L143.248 89.3808L151.696 88.0746L151.245 85.1606Z" fill="#3CC7F5"/>
<path opacity="0.5" d="M177.667 81.0682L171.732 81.9858L172.183 84.8998L178.117 83.9822L177.667 81.0682Z" fill="#3CC7F5"/>
<path d="M158.039 71.3228C161.698 73.0708 165.226 75.0797 168.597 77.3342C170.367 78.4936 172.061 79.7644 173.67 81.1388C174.551 81.9013 175.382 82.7211 176.155 83.5928C176.598 84.1065 177.007 84.6488 177.379 85.2161C177.859 85.9363 178.237 86.7195 178.502 87.5433C178.683 88.1017 178.79 88.6817 178.819 89.2681C178.828 89.3693 178.828 89.4712 178.819 89.5724V89.788V90.2256L178.787 91.1006L178.711 91.9186C178.66 92.464 178.603 93.0093 178.514 93.5229C178.425 94.0366 178.368 94.5692 178.267 95.0702C177.931 97.1183 177.436 99.065 176.942 101.005C175.911 104.85 174.64 108.626 173.137 112.312C172.936 112.809 172.561 113.217 172.082 113.458C171.602 113.7 171.052 113.759 170.532 113.625C170.012 113.491 169.559 113.172 169.257 112.729C168.955 112.285 168.824 111.747 168.889 111.215V111.164C169.339 107.359 169.89 103.516 170.29 99.7499C170.512 97.8475 170.683 95.9896 170.797 94.1697C170.835 93.7132 170.835 93.2756 170.861 92.8254C170.886 92.3752 170.861 91.944 170.861 91.5192V90.885V90.3017V90.01V89.8641C170.861 89.8641 170.861 89.7183 170.861 89.8007C170.855 89.9021 170.855 90.0037 170.861 90.1051C170.861 90.1748 170.791 90.0353 170.639 89.8641C170.442 89.6385 170.23 89.4266 170.005 89.23C169.447 88.6863 168.856 88.178 168.235 87.7082C166.891 86.6873 165.382 85.6854 163.828 84.7279C160.715 82.8255 157.367 80.9993 154.101 79.2682H154.057C153.043 78.7182 152.283 77.795 151.938 76.6943C151.593 75.5936 151.69 74.4017 152.208 73.3713C152.727 72.3408 153.626 71.5527 154.716 71.1739C155.805 70.7951 156.999 70.8553 158.045 71.3419L158.039 71.3228Z" fill="#3CC7F5"/>
<path d="M169.351 110.2L166.117 114.588L172.255 116.832C172.255 116.832 174.703 112.502 172.61 110.834L169.351 110.2Z" fill="#263238"/>
<path d="M166.929 120.193L169.211 120.618C169.651 120.696 170.104 120.617 170.492 120.394C170.879 120.172 171.175 119.82 171.329 119.401L172.255 116.864L166.136 114.588L165.438 117.955C165.339 118.449 165.441 118.963 165.72 119.383C166 119.802 166.434 120.094 166.929 120.193Z" fill="#263238"/>
<path d="M168.818 111.417C168.818 111.417 168.932 108.431 169.009 107.651C169.903 107.594 174.43 108.64 174.544 109.008C173.986 110.504 173.276 112.495 173.276 112.495L168.818 111.417Z" fill="#263238"/>
<path d="M153.333 49.1289C150.271 48.7865 137.69 45.7238 136.523 44.5126C136.441 42.1728 137.791 39.8075 138.622 39.2749C140.937 37.753 146.028 37.696 147.645 38.1525C149.262 38.6091 153.688 40.8602 154.424 43.0288C154.995 44.7472 153.333 49.1289 153.333 49.1289Z" fill="#3CC7F5"/>
<path d="M140.633 43.7836C136.771 43.1812 133.1 43.4475 131.8 45.4006C130.348 47.5819 135.129 44.3416 137.982 45.7367C142.757 48.0829 141.622 48.4506 148.857 48.2731C145.135 46.3834 145.11 44.4811 140.633 43.7836Z" fill="#3CC7F5"/>
<path opacity="0.6" d="M140.633 43.7836C136.771 43.1812 133.1 43.4475 131.8 45.4006C130.348 47.5819 135.129 44.3416 137.982 45.7367C142.757 48.0829 141.622 48.4506 148.857 48.2731C145.135 46.3834 145.11 44.4811 140.633 43.7836Z" fill="white"/>
<path d="M149.244 52.8641C149.32 52.8092 149.372 52.727 149.389 52.6347C149.405 52.5424 149.385 52.4473 149.333 52.3695C149.278 52.2931 149.195 52.2415 149.103 52.226C149.01 52.2106 148.915 52.2325 148.838 52.287C147.514 53.2009 146.281 54.2392 145.154 55.3878C143.772 53.9484 139.885 52.4329 137.849 52.4646C136.397 52.4646 135.433 52.3948 134.349 53.4665C133.423 54.3732 134.19 59.1734 134.774 60.5304C135.11 61.2748 135.611 61.9335 136.238 62.4573C136.865 62.981 137.602 63.3563 138.395 63.5551C140.538 63.9419 145.116 64.1892 145.306 61.0567C145.346 60.3535 145.437 59.6541 145.579 58.9642C145.883 59.0162 146.19 59.0438 146.498 59.0466C147.426 59.0667 148.332 58.7741 149.073 58.2159C149.11 58.1879 149.141 58.1528 149.164 58.1126C149.188 58.0725 149.203 58.028 149.209 57.982C149.215 57.9359 149.211 57.8891 149.199 57.8443C149.186 57.7996 149.165 57.7578 149.136 57.7213C149.108 57.6841 149.072 57.6528 149.031 57.6294C148.991 57.606 148.946 57.591 148.899 57.5851C148.853 57.5792 148.805 57.5826 148.76 57.5951C148.715 57.6076 148.672 57.6289 148.635 57.6579C148.219 57.9531 147.747 58.1614 147.248 58.2703C146.749 58.3793 146.233 58.3867 145.731 58.292C145.934 57.3662 146.036 56.7702 145.585 55.9966C146.697 54.8328 147.923 53.7834 149.244 52.8641Z" fill="#3CC7F5"/>
<path opacity="0.6" d="M149.244 52.8641C149.32 52.8092 149.372 52.727 149.389 52.6347C149.405 52.5424 149.385 52.4473 149.333 52.3695C149.278 52.2931 149.195 52.2415 149.103 52.226C149.01 52.2106 148.915 52.2325 148.838 52.287C147.514 53.2009 146.281 54.2392 145.154 55.3878C143.772 53.9484 139.885 52.4329 137.849 52.4646C136.397 52.4646 135.433 52.3948 134.349 53.4665C133.423 54.3732 134.19 59.1734 134.774 60.5304C135.11 61.2748 135.611 61.9335 136.238 62.4573C136.865 62.981 137.602 63.3563 138.395 63.5551C140.538 63.9419 145.116 64.1892 145.306 61.0567C145.346 60.3535 145.437 59.6541 145.579 58.9642C145.883 59.0162 146.19 59.0438 146.498 59.0466C147.426 59.0667 148.332 58.7741 149.073 58.2159C149.11 58.1879 149.141 58.1528 149.164 58.1126C149.188 58.0725 149.203 58.028 149.209 57.982C149.215 57.9359 149.211 57.8891 149.199 57.8443C149.186 57.7996 149.165 57.7578 149.136 57.7213C149.108 57.6841 149.072 57.6528 149.031 57.6294C148.991 57.606 148.946 57.591 148.899 57.5851C148.853 57.5792 148.805 57.5826 148.76 57.5951C148.715 57.6076 148.672 57.6289 148.635 57.6579C148.219 57.9531 147.747 58.1614 147.248 58.2703C146.749 58.3793 146.233 58.3867 145.731 58.292C145.934 57.3662 146.036 56.7702 145.585 55.9966C146.697 54.8328 147.923 53.7834 149.244 52.8641Z" fill="white"/>
</svg>
