<svg width="282" height="210" viewBox="0 0 282 210" fill="none" xmlns="http://www.w3.org/2000/svg">
<path d="M281.455 184.297H0V184.438H281.455V184.297Z" fill="#FAFAFA"/>
<path d="M238.235 190.421H224.258V190.562H238.235V190.421Z" fill="#E0E0E0"/>
<path d="M247.089 190.348H242.366V190.489H247.089V190.348Z" fill="#E0E0E0"/>
<path d="M186.903 191.294H157.638V191.435H186.903V191.294Z" fill="#E0E0E0"/>
<path d="M150.731 192.819H146.368V192.96H150.731V192.819Z" fill="#E0E0E0"/>
<path d="M63.0175 188.367H55.4971V188.507H63.0175V188.367Z" fill="#E0E0E0"/>
<path d="M104.284 188.367H66.1416V188.507H104.284V188.367Z" fill="#E0E0E0"/>
<path d="M71.7709 191.767H45.2354V191.907H71.7709V191.767Z" fill="#E0E0E0"/>
<path d="M133.41 159.191H24.7174C23.8659 159.189 23.0498 158.85 22.4482 158.248C21.8467 157.645 21.5088 156.828 21.5088 155.977V3.18607C21.5162 2.33947 21.8573 1.52998 22.4581 0.933428C23.0589 0.336878 23.8707 0.00145027 24.7174 0H133.41C134.262 0 135.08 0.33864 135.682 0.941422C136.285 1.54421 136.624 2.36175 136.624 3.21422V155.977C136.624 156.829 136.285 157.647 135.682 158.25C135.08 158.852 134.262 159.191 133.41 159.191ZM24.7174 0.112582C23.9032 0.114074 23.1229 0.438544 22.5477 1.01477C21.9726 1.591 21.6495 2.37191 21.6495 3.18607V155.977C21.6495 156.791 21.9726 157.572 22.5477 158.148C23.1229 158.724 23.9032 159.049 24.7174 159.05H133.41C134.224 159.049 135.005 158.724 135.581 158.148C136.157 157.572 136.482 156.791 136.483 155.977V3.18607C136.482 2.37139 136.157 1.5905 135.581 1.01443C135.005 0.438361 134.224 0.11407 133.41 0.112582H24.7174Z" fill="#E0E0E0"/>
<path d="M255.173 159.191H146.475C145.623 159.189 144.806 158.85 144.204 158.248C143.601 157.645 143.262 156.829 143.261 155.977V3.18607C143.27 2.33896 143.612 1.52947 144.214 0.933076C144.815 0.336681 145.628 0.00143446 146.475 0H255.173C256.019 0.00292966 256.829 0.339012 257.429 0.935403C258.028 1.53179 258.368 2.34044 258.376 3.18607V155.977C258.376 156.827 258.039 157.643 257.438 158.246C256.838 158.848 256.023 159.188 255.173 159.191ZM146.475 0.112582C145.66 0.11407 144.879 0.438361 144.303 1.01443C143.727 1.5905 143.403 2.37139 143.401 3.18607V155.977C143.403 156.791 143.727 157.572 144.303 158.148C144.879 158.724 145.66 159.049 146.475 159.05H255.173C255.988 159.049 256.768 158.724 257.345 158.148C257.921 157.572 258.245 156.791 258.246 155.977V3.18607C258.245 2.37139 257.921 1.5905 257.345 1.01443C256.768 0.438361 255.988 0.11407 255.173 0.112582H146.475Z" fill="#E0E0E0"/>
<path d="M192.374 184.297H212.262V148.203H192.374V184.297Z" fill="#E0E0E0"/>
<path d="M235.988 148.203H212.262V184.297H235.988V148.203Z" fill="#EBEBEB"/>
<g style="mix-blend-mode:multiply" opacity="0.7">
<path d="M192.375 152.892H236.197V151.26H192.375V152.892Z" fill="#E0E0E0"/>
</g>
<path d="M191.276 151.941H212.262V144.42H191.276V151.941Z" fill="#E0E0E0"/>
<path d="M237.086 144.426H212.262V151.946H237.086V144.426Z" fill="#EBEBEB"/>
<path d="M109.239 10.6895H42.292V90.5664H109.239V10.6895Z" fill="#E0E0E0"/>
<path d="M112.306 10.6895H43.7266V90.5664H112.306V10.6895Z" fill="#EBEBEB"/>
<path d="M109.239 90.5664H42.292V96.2574H109.239V90.5664Z" fill="#E0E0E0"/>
<path d="M117.407 90.5664H48.8271V96.2574H117.407V90.5664Z" fill="#EBEBEB"/>
<path d="M108.017 86.2772V14.979L48.016 14.979L48.016 86.2772H108.017Z" fill="#F5F5F5"/>
<path d="M55.3789 86.2772L80.5466 14.979H92.424L67.2619 86.2772H55.3789Z" fill="#FAFAFA"/>
<path d="M49.9973 62.0889C49.9162 62.0875 49.8389 62.0542 49.782 61.9963C49.7252 61.9384 49.6933 61.8605 49.6934 61.7793V17.7654C49.6934 17.6848 49.7254 17.6075 49.7824 17.5505C49.8394 17.4935 49.9167 17.4614 49.9973 17.4614C50.0785 17.4614 50.1564 17.4933 50.2143 17.5501C50.2722 17.607 50.3055 17.6843 50.3069 17.7654V61.7793C50.3069 61.8615 50.2743 61.9402 50.2163 61.9983C50.1582 62.0563 50.0794 62.0889 49.9973 62.0889Z" fill="#EBEBEB"/>
<path d="M69.8125 86.2772L94.9802 14.979H99.613L74.4453 86.2772H69.8125Z" fill="#FAFAFA"/>
<path d="M108.011 86.2772V14.979H107.465V86.2772H108.011Z" fill="#E0E0E0"/>
<path d="M113.314 20.462H46.3726L45.9785 16.6455H112.92L113.314 20.462Z" fill="#E0E0E0"/>
<path d="M113.314 23.2597H46.3726L45.9785 19.4375H112.92L113.314 23.2597Z" fill="#E0E0E0"/>
<path d="M113.314 26.6146H46.3726L45.9785 22.7925H112.92L113.314 26.6146Z" fill="#E0E0E0"/>
<path d="M113.314 30.3463H46.3726L45.9785 26.5298H112.92L113.314 30.3463Z" fill="#E0E0E0"/>
<path d="M113.314 34.8217H46.3726L45.9785 30.9995H112.92L113.314 34.8217Z" fill="#E0E0E0"/>
<path d="M113.314 39.8483H46.3726L45.9785 36.0317H112.92L113.314 39.8483Z" fill="#E0E0E0"/>
<path d="M230.996 10.6895H164.049V90.5664H230.996V10.6895Z" fill="#E0E0E0"/>
<path d="M234.058 10.6895H165.479V90.5664H234.058V10.6895Z" fill="#EBEBEB"/>
<path d="M230.996 90.5664H164.049V96.2574H230.996V90.5664Z" fill="#E0E0E0"/>
<path d="M239.163 90.5664H170.584V96.2574H239.163V90.5664Z" fill="#EBEBEB"/>
<path d="M229.774 86.2772V14.979L169.774 14.979V86.2772H229.774Z" fill="#F5F5F5"/>
<path d="M177.137 86.2772L202.304 14.979H214.182L189.014 86.2772H177.137Z" fill="#FAFAFA"/>
<path d="M171.755 62.0889C171.674 62.0875 171.597 62.0542 171.54 61.9963C171.483 61.9384 171.451 61.8605 171.451 61.7793V17.7654C171.451 17.6848 171.483 17.6075 171.54 17.5505C171.597 17.4935 171.675 17.4614 171.755 17.4614C171.836 17.4614 171.913 17.4935 171.97 17.5505C172.027 17.6075 172.059 17.6848 172.059 17.7654V61.7793C172.059 61.8605 172.027 61.9384 171.97 61.9963C171.914 62.0542 171.836 62.0875 171.755 62.0889Z" fill="#EBEBEB"/>
<path d="M191.569 86.2772L216.737 14.979H221.364L196.202 86.2772H191.569Z" fill="#FAFAFA"/>
<path d="M229.769 86.2772V14.979H229.223V86.2772H229.769Z" fill="#E0E0E0"/>
<path d="M235.071 20.462H168.13L167.73 16.6455H234.677L235.071 20.462Z" fill="#E0E0E0"/>
<path d="M235.071 23.2597H168.13L167.73 19.4375H234.677L235.071 23.2597Z" fill="#E0E0E0"/>
<path d="M235.071 26.6146H168.13L167.73 22.7925H234.677L235.071 26.6146Z" fill="#E0E0E0"/>
<path d="M235.071 30.3463H168.13L167.73 26.5298H234.677L235.071 30.3463Z" fill="#E0E0E0"/>
<path d="M235.071 34.8217H168.13L167.73 30.9995H234.677L235.071 34.8217Z" fill="#E0E0E0"/>
<path d="M235.071 39.8483H168.13L167.73 36.0317H234.677L235.071 39.8483Z" fill="#E0E0E0"/>
<path d="M179.028 133.668H165.659V184.297H179.028V133.668Z" fill="#E0E0E0"/>
<path d="M176.484 184.297H179.023V178.093H173.821L176.484 184.297Z" fill="#F5F5F5"/>
<path d="M49.289 133.668H35.9199V184.297H49.289V133.668Z" fill="#E0E0E0"/>
<path d="M179.028 133.668H47.0703V180.885H179.028V133.668Z" fill="#F5F5F5"/>
<path d="M113.899 136.033V169.751H177.058V136.033H113.899Z" fill="#E0E0E0"/>
<path d="M49.041 136.033V169.751H112.2V136.033H49.041Z" fill="#E0E0E0"/>
<path d="M177.052 176.878V173.123H113.893V176.878H177.052Z" fill="#E0E0E0"/>
<path d="M112.193 176.883V173.128H49.0348V176.883H112.193Z" fill="#E0E0E0"/>
<path d="M102.86 138.048H58.3902C57.4028 138.049 56.4255 137.85 55.5171 137.463C54.6088 137.076 53.7881 136.509 53.1045 135.796H108.168C107.482 136.512 106.658 137.08 105.745 137.467C104.833 137.854 103.851 138.052 102.86 138.048Z" fill="#F5F5F5"/>
<path d="M167.956 138.048H123.486C122.499 138.049 121.521 137.85 120.613 137.463C119.704 137.076 118.884 136.509 118.2 135.796H173.264C172.579 136.513 171.755 137.083 170.842 137.47C169.929 137.857 168.947 138.054 167.956 138.048Z" fill="#F5F5F5"/>
<path d="M49.6098 184.297H47.0654V178.093H52.2667L49.6098 184.297Z" fill="#F5F5F5"/>
<g style="mix-blend-mode:multiply" opacity="0.4">
<path d="M143.858 102.585H128.975V133.669H143.858V102.585Z" fill="#E0E0E0"/>
</g>
<path d="M156.36 133.669H131.17L128.8 100.103H153.984L156.36 133.669Z" fill="#E0E0E0"/>
<path d="M159.225 133.669H131.884L129.515 100.103H156.85L159.225 133.669Z" fill="#F5F5F5"/>
<path d="M133.151 132.385L130.961 101.386H155.588L157.784 132.385H133.151Z" fill="#FAFAFA"/>
<path d="M139.113 125.445L137.902 108.327H149.628L150.838 125.445H139.113Z" fill="#F5F5F5"/>
<path d="M89.7002 128.158C93.3127 128.158 96.2412 125.229 96.2412 121.617C96.2412 118.004 93.3127 115.076 89.7002 115.076C86.0877 115.076 83.1592 118.004 83.1592 121.617C83.1592 125.229 86.0877 128.158 89.7002 128.158Z" fill="#EBEBEB"/>
<path d="M100.901 131.276C104.514 131.276 107.442 128.348 107.442 124.735C107.442 121.123 104.514 118.194 100.901 118.194C97.2889 118.194 94.3604 121.123 94.3604 124.735C94.3604 128.348 97.2889 131.276 100.901 131.276Z" fill="#EBEBEB"/>
<path d="M112.032 126.038C114.26 125.12 115.322 122.57 114.404 120.343C113.486 118.115 110.936 117.053 108.708 117.971C106.481 118.888 105.419 121.438 106.337 123.666C107.254 125.894 109.804 126.956 112.032 126.038Z" fill="#EBEBEB"/>
<path d="M100.558 118.361C100.944 115.983 99.3278 113.743 96.9495 113.358C94.5711 112.972 92.3308 114.588 91.9455 116.967C91.5603 119.345 93.1761 121.585 95.5545 121.97C97.9329 122.356 100.173 120.74 100.558 118.361Z" fill="#EBEBEB"/>
<path d="M79.2412 123.564C79.2412 123.564 79.7535 133.669 99.3821 133.669C119.011 133.669 119.523 123.564 119.523 123.564H79.2412Z" fill="#E0E0E0"/>
<path d="M61.115 130.207C61.115 130.207 54.7204 119.185 63.5918 110.409C63.5918 110.409 65.9054 111.918 65.8435 113.95C65.7815 115.982 63.361 116.489 63.8845 118.183C64.408 119.877 66.6991 121.56 65.2074 122.94C63.7157 124.319 65.4494 125.58 65.3481 127.296C65.2468 129.013 61.115 130.207 61.115 130.207Z" fill="#E0E0E0"/>
<path d="M61.5995 131.214C61.5995 131.214 64.1889 118.74 53.0038 113.201C53.0038 113.201 51.2813 115.368 51.9568 117.282C52.6323 119.196 55.1091 118.909 55.1485 120.66C55.1879 122.41 53.5161 124.735 55.3962 125.585C57.2763 126.435 55.9985 128.175 56.6346 129.768C57.2707 131.361 61.5995 131.214 61.5995 131.214Z" fill="#E0E0E0"/>
<path d="M51.7881 125.444C51.7881 125.444 52.002 133.668 60.1529 133.668C68.3039 133.668 68.5178 125.444 68.5178 125.444H51.7881Z" fill="#EBEBEB"/>
<path d="M140.728 209.718C201.005 209.718 249.87 206.865 249.87 203.346C249.87 199.827 201.005 196.974 140.728 196.974C80.4498 196.974 31.585 199.827 31.585 203.346C31.585 206.865 80.4498 209.718 140.728 209.718Z" fill="#F5F5F5"/>
<path d="M101.577 122.399C101.243 122.377 100.93 122.229 100.702 121.985C100.473 121.741 100.346 121.419 100.346 121.085C100.346 120.75 100.473 120.428 100.702 120.184C100.93 119.94 101.243 119.792 101.577 119.77C104.797 119.77 107.51 115.16 107.51 109.7C107.532 109.366 107.68 109.053 107.924 108.825C108.168 108.596 108.49 108.469 108.824 108.469C109.159 108.469 109.481 108.596 109.725 108.825C109.969 109.053 110.117 109.366 110.139 109.7C110.139 116.821 106.39 122.399 101.577 122.399Z" fill="#3CC7F5"/>
<path d="M121.442 122.399C121.108 122.377 120.795 122.229 120.567 121.985C120.338 121.741 120.211 121.419 120.211 121.085C120.211 120.75 120.338 120.428 120.567 120.184C120.795 119.94 121.108 119.792 121.442 119.77C124.662 119.77 127.375 115.16 127.375 109.7C127.397 109.366 127.545 109.053 127.789 108.825C128.033 108.596 128.355 108.469 128.69 108.469C129.024 108.469 129.346 108.596 129.59 108.825C129.834 109.053 129.982 109.366 130.004 109.7C130.032 116.821 126.244 122.399 121.442 122.399Z" fill="#3CC7F5"/>
<path d="M141.29 122.399C140.956 122.377 140.643 122.229 140.414 121.985C140.186 121.741 140.059 121.419 140.059 121.085C140.059 120.75 140.186 120.428 140.414 120.184C140.643 119.94 140.956 119.792 141.29 119.77C144.504 119.77 147.223 115.16 147.223 109.7C147.223 109.352 147.361 109.018 147.607 108.772C147.853 108.526 148.187 108.388 148.534 108.388C148.882 108.388 149.216 108.526 149.462 108.772C149.708 109.018 149.846 109.352 149.846 109.7C149.863 116.821 146.108 122.399 141.29 122.399Z" fill="#3CC7F5"/>
<path d="M161.172 122.399C160.992 122.411 160.812 122.386 160.642 122.325C160.472 122.264 160.317 122.169 160.185 122.046C160.054 121.923 159.949 121.774 159.877 121.609C159.806 121.443 159.769 121.265 159.769 121.085C159.769 120.904 159.806 120.726 159.877 120.561C159.949 120.395 160.054 120.246 160.185 120.123C160.317 120 160.472 119.905 160.642 119.844C160.812 119.784 160.992 119.758 161.172 119.77C164.386 119.77 167.105 115.16 167.105 109.7C167.105 109.352 167.243 109.018 167.489 108.772C167.735 108.526 168.069 108.388 168.416 108.388C168.764 108.388 169.098 108.526 169.344 108.772C169.59 109.018 169.728 109.352 169.728 109.7C169.728 116.821 165.968 122.399 161.172 122.399Z" fill="#3CC7F5"/>
<path d="M181.031 122.399C180.697 122.377 180.384 122.229 180.156 121.985C179.927 121.741 179.8 121.419 179.8 121.085C179.8 120.75 179.927 120.428 180.156 120.184C180.384 119.94 180.697 119.792 181.031 119.77C184.251 119.77 186.964 115.16 186.964 109.7C186.986 109.366 187.134 109.053 187.378 108.825C187.622 108.596 187.944 108.469 188.278 108.469C188.613 108.469 188.935 108.596 189.179 108.825C189.423 109.053 189.571 109.366 189.593 109.7C189.593 116.821 185.833 122.399 181.031 122.399Z" fill="#3CC7F5"/>
<path d="M200.897 122.399C200.563 122.377 200.251 122.229 200.022 121.985C199.793 121.741 199.666 121.419 199.666 121.085C199.666 120.75 199.793 120.428 200.022 120.184C200.251 119.94 200.563 119.792 200.897 119.77C204.111 119.77 206.83 115.16 206.83 109.7C206.852 109.366 207 109.053 207.244 108.825C207.488 108.596 207.81 108.469 208.145 108.469C208.479 108.469 208.801 108.596 209.045 108.825C209.289 109.053 209.437 109.366 209.459 109.7C209.459 116.821 205.699 122.399 200.897 122.399Z" fill="#3CC7F5"/>
<g opacity="0.3">
<path d="M101.577 122.399C101.243 122.377 100.93 122.229 100.702 121.985C100.473 121.741 100.346 121.419 100.346 121.085C100.346 120.75 100.473 120.428 100.702 120.184C100.93 119.94 101.243 119.792 101.577 119.77C104.797 119.77 107.51 115.16 107.51 109.7C107.532 109.366 107.68 109.053 107.924 108.825C108.168 108.596 108.49 108.469 108.824 108.469C109.159 108.469 109.481 108.596 109.725 108.825C109.969 109.053 110.117 109.366 110.139 109.7C110.139 116.821 106.39 122.399 101.577 122.399Z" fill="black"/>
<path d="M121.442 122.399C121.108 122.377 120.795 122.229 120.567 121.985C120.338 121.741 120.211 121.419 120.211 121.085C120.211 120.75 120.338 120.428 120.567 120.184C120.795 119.94 121.108 119.792 121.442 119.77C124.662 119.77 127.375 115.16 127.375 109.7C127.397 109.366 127.545 109.053 127.789 108.825C128.033 108.596 128.355 108.469 128.69 108.469C129.024 108.469 129.346 108.596 129.59 108.825C129.834 109.053 129.982 109.366 130.004 109.7C130.032 116.821 126.244 122.399 121.442 122.399Z" fill="black"/>
<path d="M141.29 122.399C140.956 122.377 140.643 122.229 140.414 121.985C140.186 121.741 140.059 121.419 140.059 121.085C140.059 120.75 140.186 120.428 140.414 120.184C140.643 119.94 140.956 119.792 141.29 119.77C144.504 119.77 147.223 115.16 147.223 109.7C147.223 109.352 147.361 109.018 147.607 108.772C147.853 108.526 148.187 108.388 148.534 108.388C148.882 108.388 149.216 108.526 149.462 108.772C149.708 109.018 149.846 109.352 149.846 109.7C149.863 116.821 146.108 122.399 141.29 122.399Z" fill="black"/>
<path d="M161.172 122.399C160.992 122.411 160.812 122.386 160.642 122.325C160.472 122.264 160.317 122.169 160.185 122.046C160.054 121.923 159.949 121.774 159.877 121.609C159.806 121.443 159.769 121.265 159.769 121.085C159.769 120.904 159.806 120.726 159.877 120.561C159.949 120.395 160.054 120.246 160.185 120.123C160.317 120 160.472 119.905 160.642 119.844C160.812 119.784 160.992 119.758 161.172 119.77C164.386 119.77 167.105 115.16 167.105 109.7C167.105 109.352 167.243 109.018 167.489 108.772C167.735 108.526 168.069 108.388 168.416 108.388C168.764 108.388 169.098 108.526 169.344 108.772C169.59 109.018 169.728 109.352 169.728 109.7C169.728 116.821 165.968 122.399 161.172 122.399Z" fill="black"/>
<path d="M181.032 122.399C180.698 122.377 180.385 122.229 180.157 121.985C179.928 121.741 179.801 121.419 179.801 121.085C179.801 120.75 179.928 120.428 180.157 120.184C180.385 119.94 180.698 119.792 181.032 119.77C184.252 119.77 186.965 115.16 186.965 109.7C186.987 109.366 187.135 109.053 187.379 108.825C187.623 108.596 187.945 108.469 188.279 108.469C188.614 108.469 188.936 108.596 189.18 108.825C189.424 109.053 189.572 109.366 189.594 109.7C189.594 116.821 185.834 122.399 181.032 122.399Z" fill="black"/>
<path d="M200.897 122.399C200.563 122.377 200.251 122.229 200.022 121.985C199.793 121.741 199.666 121.419 199.666 121.085C199.666 120.75 199.793 120.428 200.022 120.184C200.251 119.94 200.563 119.792 200.897 119.77C204.111 119.77 206.83 115.16 206.83 109.7C206.852 109.366 207 109.053 207.244 108.825C207.488 108.596 207.81 108.469 208.145 108.469C208.479 108.469 208.801 108.596 209.045 108.825C209.289 109.053 209.437 109.366 209.459 109.7C209.459 116.821 205.699 122.399 200.897 122.399Z" fill="black"/>
</g>
<path d="M89.1304 111.045H217.012C218.727 111.079 220.37 111.738 221.634 112.898C222.897 114.058 223.694 115.639 223.874 117.344L230.956 197.182C231.042 197.983 230.957 198.793 230.706 199.559C230.456 200.325 230.046 201.029 229.503 201.624C228.96 202.219 228.297 202.693 227.558 203.013C226.819 203.333 226.02 203.492 225.214 203.481H97.3264C95.6125 203.444 93.9707 202.784 92.7078 201.625C91.4449 200.466 90.6475 198.886 90.4645 197.182L83.3888 117.344C83.3017 116.543 83.3859 115.732 83.636 114.966C83.886 114.2 84.2962 113.495 84.8391 112.9C85.3821 112.304 86.0455 111.831 86.7853 111.511C87.5252 111.191 88.3245 111.032 89.1304 111.045Z" fill="#3CC7F5"/>
<path opacity="0.4" d="M89.1304 111.045H217.012C218.727 111.079 220.37 111.738 221.634 112.898C222.897 114.058 223.694 115.639 223.874 117.344L230.956 197.182C231.042 197.983 230.957 198.793 230.706 199.559C230.456 200.325 230.046 201.029 229.503 201.624C228.96 202.219 228.297 202.693 227.558 203.013C226.819 203.333 226.02 203.492 225.214 203.481H97.3264C95.6125 203.444 93.9707 202.784 92.7078 201.625C91.4449 200.466 90.6475 198.886 90.4645 197.182L83.3888 117.344C83.3017 116.543 83.3859 115.732 83.636 114.966C83.886 114.2 84.2962 113.495 84.8391 112.9C85.3821 112.304 86.0455 111.831 86.7853 111.511C87.5252 111.191 88.3245 111.032 89.1304 111.045Z" fill="#FAFAFA"/>
<path d="M215.949 111.045H88.0612C86.3697 111.065 84.7488 111.727 83.5263 112.896C82.3037 114.065 81.5706 115.655 81.4752 117.344L77.8726 197.182C77.8297 197.995 77.9532 198.808 78.2357 199.572C78.5182 200.336 78.9537 201.034 79.5155 201.624C80.0773 202.214 80.7535 202.683 81.5028 203.002C82.2521 203.321 83.0587 203.484 83.8732 203.481H211.772C213.464 203.46 215.084 202.799 216.307 201.63C217.53 200.46 218.263 198.871 218.358 197.182L221.966 117.344C222.009 116.529 221.884 115.715 221.6 114.95C221.316 114.185 220.879 113.487 220.316 112.897C219.752 112.307 219.074 111.839 218.323 111.52C217.573 111.202 216.764 111.04 215.949 111.045Z" fill="#3CC7F5"/>
<path opacity="0.2" d="M215.949 111.045H88.0612C86.3697 111.065 84.7488 111.727 83.5263 112.896C82.3037 114.065 81.5706 115.655 81.4752 117.344L77.8726 197.182C77.8297 197.995 77.9532 198.808 78.2357 199.572C78.5182 200.336 78.9537 201.034 79.5155 201.624C80.0773 202.214 80.7535 202.683 81.5028 203.002C82.2521 203.321 83.0587 203.484 83.8732 203.481H211.772C213.464 203.46 215.084 202.799 216.307 201.63C217.53 200.46 218.263 198.871 218.358 197.182L221.966 117.344C222.009 116.529 221.884 115.715 221.6 114.95C221.316 114.185 220.879 113.487 220.316 112.897C219.752 112.307 219.074 111.839 218.323 111.52C217.573 111.202 216.764 111.04 215.949 111.045Z" fill="#FAFAFA"/>
<path d="M90.4083 182.383L93.3861 116.449C93.4218 115.803 93.7024 115.194 94.1707 114.746C94.6391 114.299 95.2602 114.046 95.908 114.04H207.831C208.143 114.038 208.453 114.1 208.74 114.222C209.027 114.343 209.286 114.523 209.502 114.748C209.718 114.974 209.885 115.241 209.993 115.534C210.102 115.826 210.15 116.138 210.134 116.449L207.15 182.383C207.115 183.03 206.834 183.639 206.366 184.086C205.897 184.534 205.276 184.786 204.628 184.792H92.7106C92.3986 184.794 92.0895 184.732 91.8022 184.611C91.5149 184.489 91.2555 184.31 91.04 184.084C90.8244 183.859 90.6572 183.591 90.5485 183.299C90.4399 183.006 90.3922 182.695 90.4083 182.383Z" fill="#3CC7F5"/>
<path opacity="0.1" d="M90.4083 182.383L93.3861 116.449C93.4218 115.803 93.7024 115.194 94.1707 114.746C94.6391 114.299 95.2602 114.046 95.908 114.04H207.831C208.143 114.038 208.453 114.1 208.74 114.222C209.027 114.343 209.286 114.523 209.502 114.748C209.718 114.974 209.885 115.241 209.993 115.534C210.102 115.826 210.15 116.138 210.134 116.449L207.15 182.383C207.115 183.03 206.834 183.639 206.366 184.086C205.897 184.534 205.276 184.786 204.628 184.792H92.7106C92.3986 184.794 92.0895 184.732 91.8022 184.611C91.5149 184.489 91.2555 184.31 91.04 184.084C90.8244 183.859 90.6572 183.591 90.5485 183.299C90.4399 183.006 90.3922 182.695 90.4083 182.383Z" fill="#FAFAFA"/>
<path opacity="0.1" d="M87.2502 187.765L90.3744 118.527C90.4102 117.847 90.704 117.208 91.1958 116.738C91.6875 116.268 92.34 116.004 93.0201 115.999H210.556C210.883 115.996 211.208 116.061 211.51 116.188C211.811 116.316 212.084 116.504 212.31 116.74C212.536 116.977 212.712 117.258 212.825 117.565C212.939 117.872 212.988 118.2 212.971 118.527L209.841 187.765C209.805 188.443 209.512 189.083 209.022 189.553C208.532 190.024 207.88 190.29 207.201 190.298H89.6539C89.3266 190.3 89.0023 190.235 88.7011 190.106C88.4 189.978 88.1283 189.789 87.903 189.552C87.6777 189.315 87.5035 189.033 87.3913 188.726C87.279 188.419 87.231 188.091 87.2502 187.765Z" fill="black"/>
<path d="M84.3458 193.348L87.605 121.127C87.6488 120.421 87.9569 119.757 88.468 119.268C88.9792 118.778 89.6558 118.5 90.3633 118.487H212.971C213.313 118.484 213.652 118.551 213.967 118.685C214.282 118.818 214.566 119.014 214.803 119.262C215.039 119.509 215.222 119.802 215.341 120.123C215.459 120.444 215.511 120.785 215.493 121.127L212.216 193.348C212.173 194.055 211.865 194.718 211.353 195.208C210.842 195.697 210.166 195.976 209.458 195.988H86.8676C86.5253 195.992 86.1859 195.925 85.8705 195.792C85.555 195.659 85.2703 195.463 85.0338 195.216C84.7974 194.968 84.6143 194.675 84.496 194.353C84.3776 194.032 84.3265 193.69 84.3458 193.348Z" fill="#FAFAFA"/>
<path d="M200.88 122.816C200.65 122.816 200.421 122.769 200.21 122.678C199.998 122.587 199.807 122.454 199.649 122.286C199.491 122.118 199.368 121.92 199.29 121.703C199.211 121.486 199.178 121.256 199.192 121.026C199.213 120.574 199.406 120.148 199.732 119.834C200.057 119.52 200.49 119.342 200.942 119.337C201.173 119.337 201.401 119.383 201.613 119.474C201.824 119.566 202.015 119.699 202.174 119.867C202.332 120.035 202.454 120.233 202.533 120.45C202.611 120.666 202.645 120.897 202.631 121.127C202.609 121.579 202.416 122.005 202.091 122.319C201.765 122.633 201.332 122.81 200.88 122.816Z" fill="#3CC7F5"/>
<path d="M181.015 122.816C180.784 122.816 180.556 122.769 180.344 122.678C180.133 122.587 179.942 122.454 179.784 122.286C179.625 122.118 179.503 121.92 179.425 121.703C179.346 121.486 179.312 121.256 179.326 121.026C179.348 120.574 179.541 120.148 179.866 119.834C180.192 119.52 180.625 119.342 181.077 119.337C181.307 119.337 181.536 119.383 181.747 119.474C181.959 119.566 182.15 119.699 182.308 119.867C182.467 120.035 182.589 120.233 182.667 120.45C182.746 120.666 182.779 120.897 182.766 121.127C182.745 121.579 182.553 122.006 182.227 122.32C181.901 122.635 181.468 122.812 181.015 122.816Z" fill="#3CC7F5"/>
<path d="M161.15 122.816C160.919 122.816 160.691 122.769 160.479 122.678C160.267 122.587 160.077 122.454 159.918 122.286C159.76 122.118 159.638 121.92 159.559 121.703C159.481 121.486 159.447 121.256 159.461 121.026C159.484 120.574 159.678 120.149 160.003 119.835C160.328 119.522 160.76 119.343 161.212 119.337C161.442 119.337 161.67 119.383 161.882 119.474C162.094 119.566 162.285 119.699 162.443 119.867C162.601 120.035 162.724 120.233 162.802 120.45C162.881 120.666 162.914 120.897 162.9 121.127C162.88 121.579 162.687 122.006 162.362 122.32C162.036 122.635 161.602 122.812 161.15 122.816Z" fill="#3CC7F5"/>
<path d="M141.289 122.816C141.059 122.816 140.831 122.769 140.619 122.678C140.407 122.587 140.216 122.454 140.058 122.286C139.9 122.118 139.778 121.92 139.699 121.703C139.62 121.486 139.587 121.256 139.601 121.026C139.625 120.574 139.82 120.148 140.146 119.835C140.472 119.521 140.905 119.343 141.357 119.337C141.588 119.337 141.816 119.383 142.028 119.474C142.239 119.566 142.43 119.699 142.588 119.867C142.747 120.035 142.869 120.233 142.947 120.45C143.026 120.666 143.06 120.897 143.046 121.127C143.025 121.58 142.832 122.008 142.505 122.322C142.178 122.637 141.743 122.813 141.289 122.816Z" fill="#3CC7F5"/>
<path d="M121.425 122.816C121.195 122.816 120.966 122.769 120.755 122.678C120.543 122.587 120.352 122.454 120.194 122.286C120.036 122.118 119.913 121.92 119.835 121.703C119.756 121.486 119.723 121.256 119.736 121.026C119.758 120.574 119.951 120.148 120.277 119.834C120.602 119.52 121.035 119.342 121.487 119.337C121.718 119.337 121.946 119.383 122.158 119.474C122.369 119.566 122.56 119.699 122.719 119.867C122.877 120.035 122.999 120.233 123.078 120.45C123.156 120.666 123.19 120.897 123.176 121.127C123.154 121.579 122.961 122.005 122.636 122.319C122.31 122.633 121.877 122.81 121.425 122.816Z" fill="#3CC7F5"/>
<path d="M101.56 122.816C101.329 122.816 101.101 122.769 100.889 122.678C100.678 122.587 100.487 122.454 100.329 122.286C100.17 122.118 100.048 121.92 99.9695 121.703C99.8908 121.486 99.8574 121.256 99.8712 121.026C99.8927 120.574 100.086 120.148 100.411 119.834C100.737 119.52 101.17 119.342 101.622 119.337C101.852 119.337 102.081 119.383 102.292 119.474C102.504 119.566 102.695 119.699 102.853 119.867C103.011 120.035 103.134 120.233 103.212 120.45C103.291 120.666 103.324 120.897 103.311 121.127C103.29 121.579 103.098 122.006 102.772 122.32C102.446 122.635 102.012 122.812 101.56 122.816Z" fill="#3CC7F5"/>
<g opacity="0.1">
<path d="M200.88 122.816C200.65 122.816 200.421 122.769 200.21 122.678C199.998 122.587 199.807 122.454 199.649 122.286C199.491 122.118 199.368 121.92 199.29 121.703C199.211 121.486 199.178 121.256 199.192 121.026C199.213 120.574 199.406 120.148 199.732 119.834C200.057 119.52 200.49 119.342 200.942 119.337C201.173 119.337 201.401 119.383 201.613 119.474C201.824 119.566 202.015 119.699 202.174 119.867C202.332 120.035 202.454 120.233 202.533 120.45C202.611 120.666 202.645 120.897 202.631 121.127C202.609 121.579 202.416 122.005 202.091 122.319C201.765 122.633 201.332 122.81 200.88 122.816Z" fill="#FAFAFA"/>
<path d="M181.015 122.816C180.784 122.816 180.556 122.769 180.344 122.678C180.133 122.587 179.942 122.454 179.784 122.286C179.625 122.118 179.503 121.92 179.425 121.703C179.346 121.486 179.312 121.256 179.326 121.026C179.348 120.574 179.541 120.148 179.866 119.834C180.192 119.52 180.625 119.342 181.077 119.337C181.307 119.337 181.536 119.383 181.747 119.474C181.959 119.566 182.15 119.699 182.308 119.867C182.467 120.035 182.589 120.233 182.667 120.45C182.746 120.666 182.779 120.897 182.766 121.127C182.745 121.579 182.553 122.006 182.227 122.32C181.901 122.635 181.468 122.812 181.015 122.816Z" fill="#FAFAFA"/>
<path d="M161.15 122.816C160.919 122.816 160.691 122.769 160.479 122.678C160.267 122.587 160.077 122.454 159.918 122.286C159.76 122.118 159.638 121.92 159.559 121.703C159.481 121.486 159.447 121.256 159.461 121.026C159.484 120.574 159.678 120.149 160.003 119.835C160.328 119.522 160.76 119.343 161.212 119.337C161.442 119.337 161.67 119.383 161.882 119.474C162.094 119.566 162.285 119.699 162.443 119.867C162.601 120.035 162.724 120.233 162.802 120.45C162.881 120.666 162.914 120.897 162.9 121.127C162.88 121.579 162.687 122.006 162.362 122.32C162.036 122.635 161.602 122.812 161.15 122.816Z" fill="#FAFAFA"/>
<path d="M141.29 122.816C141.06 122.816 140.832 122.769 140.62 122.678C140.408 122.587 140.217 122.454 140.059 122.286C139.901 122.118 139.779 121.92 139.7 121.703C139.621 121.486 139.588 121.256 139.602 121.026C139.626 120.574 139.821 120.148 140.147 119.835C140.473 119.521 140.906 119.343 141.358 119.337C141.589 119.337 141.817 119.383 142.028 119.474C142.24 119.566 142.431 119.699 142.589 119.867C142.748 120.035 142.87 120.233 142.948 120.45C143.027 120.666 143.061 120.897 143.047 121.127C143.026 121.58 142.833 122.008 142.506 122.322C142.179 122.637 141.744 122.813 141.29 122.816Z" fill="#FAFAFA"/>
<path d="M121.425 122.816C121.195 122.816 120.966 122.769 120.755 122.678C120.543 122.587 120.352 122.454 120.194 122.286C120.036 122.118 119.913 121.92 119.835 121.703C119.756 121.486 119.723 121.256 119.736 121.026C119.758 120.574 119.951 120.148 120.277 119.834C120.602 119.52 121.035 119.342 121.487 119.337C121.718 119.337 121.946 119.383 122.158 119.474C122.369 119.566 122.56 119.699 122.719 119.867C122.877 120.035 122.999 120.233 123.078 120.45C123.156 120.666 123.19 120.897 123.176 121.127C123.154 121.579 122.961 122.005 122.636 122.319C122.31 122.633 121.877 122.81 121.425 122.816Z" fill="#FAFAFA"/>
<path d="M101.56 122.816C101.329 122.816 101.101 122.769 100.889 122.678C100.678 122.587 100.487 122.454 100.329 122.286C100.17 122.118 100.048 121.92 99.9695 121.703C99.8908 121.486 99.8574 121.256 99.8712 121.026C99.8927 120.574 100.086 120.148 100.411 119.834C100.737 119.52 101.17 119.342 101.622 119.337C101.852 119.337 102.081 119.383 102.292 119.474C102.504 119.566 102.695 119.699 102.853 119.867C103.011 120.035 103.134 120.233 103.212 120.45C103.291 120.666 103.324 120.897 103.311 121.127C103.29 121.579 103.098 122.006 102.772 122.32C102.446 122.635 102.012 122.812 101.56 122.816Z" fill="#FAFAFA"/>
</g>
<path d="M106.525 129.109H96.5332C96.3883 129.11 96.2448 129.081 96.1116 129.024C95.9785 128.967 95.8587 128.883 95.7598 128.777C95.6608 128.671 95.5849 128.546 95.5369 128.41C95.4888 128.273 95.4696 128.128 95.4805 127.983C95.4917 127.688 95.6139 127.408 95.8226 127.2C96.0314 126.991 96.3113 126.869 96.6063 126.857H106.598C106.743 126.856 106.886 126.885 107.02 126.942C107.153 126.999 107.272 127.084 107.371 127.189C107.47 127.295 107.546 127.42 107.594 127.557C107.642 127.694 107.662 127.839 107.651 127.983C107.639 128.278 107.517 128.558 107.309 128.767C107.1 128.976 106.82 129.098 106.525 129.109Z" fill="#3CC7F5"/>
<path d="M126.39 129.109H116.398C116.254 129.11 116.11 129.081 115.977 129.024C115.844 128.967 115.724 128.883 115.625 128.777C115.526 128.671 115.45 128.546 115.402 128.41C115.354 128.273 115.335 128.128 115.346 127.983C115.357 127.684 115.483 127.4 115.698 127.19C115.913 126.981 116.2 126.862 116.5 126.857H126.486C126.631 126.856 126.775 126.885 126.908 126.942C127.041 126.999 127.162 127.083 127.261 127.189C127.36 127.295 127.437 127.42 127.485 127.557C127.534 127.693 127.554 127.839 127.544 127.983C127.532 128.283 127.406 128.567 127.192 128.776C126.977 128.986 126.69 129.105 126.39 129.109Z" fill="#3CC7F5"/>
<path d="M146.255 129.109H136.263C136.118 129.11 135.974 129.081 135.841 129.024C135.707 128.967 135.587 128.883 135.488 128.777C135.388 128.672 135.312 128.547 135.263 128.41C135.215 128.273 135.195 128.128 135.205 127.983C135.216 127.684 135.342 127.4 135.557 127.19C135.772 126.981 136.059 126.862 136.359 126.857H146.356C146.501 126.856 146.644 126.885 146.777 126.942C146.911 126.999 147.03 127.084 147.129 127.189C147.228 127.295 147.304 127.42 147.352 127.557C147.4 127.694 147.419 127.839 147.409 127.983C147.398 128.283 147.273 128.568 147.058 128.778C146.843 128.988 146.555 129.106 146.255 129.109Z" fill="#3CC7F5"/>
<path d="M166.115 129.109H156.123C155.978 129.11 155.835 129.081 155.701 129.024C155.568 128.967 155.449 128.883 155.35 128.777C155.251 128.671 155.175 128.546 155.127 128.41C155.079 128.273 155.059 128.128 155.07 127.983C155.082 127.688 155.204 127.408 155.412 127.2C155.621 126.991 155.901 126.869 156.196 126.857H166.188C166.333 126.856 166.476 126.885 166.609 126.942C166.742 126.999 166.862 127.084 166.961 127.189C167.06 127.295 167.136 127.42 167.184 127.557C167.232 127.694 167.251 127.839 167.24 127.983C167.229 128.278 167.107 128.558 166.898 128.767C166.69 128.976 166.41 129.098 166.115 129.109Z" fill="#3CC7F5"/>
<path d="M185.98 129.109H175.988C175.843 129.11 175.7 129.081 175.567 129.024C175.434 128.967 175.314 128.883 175.215 128.777C175.116 128.671 175.04 128.546 174.992 128.41C174.944 128.273 174.925 128.128 174.936 127.983C174.947 127.684 175.073 127.4 175.288 127.19C175.503 126.981 175.79 126.862 176.09 126.857H186.081C186.226 126.856 186.37 126.885 186.503 126.942C186.636 126.999 186.756 127.084 186.855 127.189C186.954 127.295 187.029 127.42 187.078 127.557C187.126 127.694 187.145 127.839 187.134 127.983C187.122 128.283 186.996 128.567 186.782 128.776C186.567 128.986 186.28 129.105 185.98 129.109Z" fill="#3CC7F5"/>
<path d="M205.844 129.109H195.852C195.708 129.11 195.564 129.081 195.431 129.024C195.298 128.967 195.178 128.883 195.079 128.777C194.98 128.671 194.904 128.546 194.856 128.41C194.808 128.273 194.789 128.128 194.8 127.983C194.811 127.684 194.937 127.4 195.152 127.19C195.367 126.981 195.654 126.862 195.954 126.857H205.94C206.085 126.856 206.229 126.885 206.362 126.942C206.495 126.999 206.616 127.083 206.715 127.189C206.814 127.295 206.891 127.42 206.94 127.557C206.988 127.693 207.008 127.839 206.998 127.983C206.987 128.283 206.86 128.567 206.646 128.776C206.431 128.986 206.144 129.105 205.844 129.109Z" fill="#3CC7F5"/>
<g opacity="0.3">
<path d="M106.525 129.109H96.5332C96.3883 129.11 96.2448 129.081 96.1116 129.024C95.9785 128.967 95.8587 128.883 95.7598 128.777C95.6608 128.671 95.5849 128.546 95.5369 128.41C95.4888 128.273 95.4696 128.128 95.4805 127.983C95.4917 127.688 95.6139 127.408 95.8226 127.2C96.0314 126.991 96.3113 126.869 96.6063 126.857H106.598C106.743 126.856 106.886 126.885 107.02 126.942C107.153 126.999 107.272 127.084 107.371 127.189C107.47 127.295 107.546 127.42 107.594 127.557C107.642 127.694 107.662 127.839 107.651 127.983C107.639 128.278 107.517 128.558 107.309 128.767C107.1 128.976 106.82 129.098 106.525 129.109Z" fill="black"/>
<path d="M126.39 129.109H116.398C116.254 129.11 116.11 129.081 115.977 129.024C115.844 128.967 115.724 128.883 115.625 128.777C115.526 128.671 115.45 128.546 115.402 128.41C115.354 128.273 115.335 128.128 115.346 127.983C115.357 127.684 115.483 127.4 115.698 127.19C115.913 126.981 116.2 126.862 116.5 126.857H126.486C126.631 126.856 126.775 126.885 126.908 126.942C127.041 126.999 127.162 127.083 127.261 127.189C127.36 127.295 127.437 127.42 127.485 127.557C127.534 127.693 127.554 127.839 127.544 127.983C127.532 128.283 127.406 128.567 127.192 128.776C126.977 128.986 126.69 129.105 126.39 129.109Z" fill="black"/>
<path d="M146.255 129.109H136.263C136.118 129.11 135.974 129.081 135.841 129.024C135.707 128.967 135.587 128.883 135.488 128.777C135.388 128.672 135.312 128.547 135.263 128.41C135.215 128.273 135.195 128.128 135.205 127.983C135.216 127.684 135.342 127.4 135.557 127.19C135.772 126.981 136.059 126.862 136.359 126.857H146.356C146.501 126.856 146.644 126.885 146.777 126.942C146.911 126.999 147.03 127.084 147.129 127.189C147.228 127.295 147.304 127.42 147.352 127.557C147.4 127.694 147.419 127.839 147.409 127.983C147.398 128.283 147.273 128.568 147.058 128.778C146.843 128.988 146.555 129.106 146.255 129.109Z" fill="black"/>
<path d="M166.115 129.109H156.123C155.978 129.11 155.835 129.081 155.701 129.024C155.568 128.967 155.449 128.883 155.35 128.777C155.251 128.671 155.175 128.546 155.127 128.41C155.079 128.273 155.059 128.128 155.07 127.983C155.082 127.688 155.204 127.408 155.412 127.2C155.621 126.991 155.901 126.869 156.196 126.857H166.188C166.333 126.856 166.476 126.885 166.609 126.942C166.742 126.999 166.862 127.084 166.961 127.189C167.06 127.295 167.136 127.42 167.184 127.557C167.232 127.694 167.251 127.839 167.24 127.983C167.229 128.278 167.107 128.558 166.898 128.767C166.69 128.976 166.41 129.098 166.115 129.109Z" fill="black"/>
<path d="M185.98 129.109H175.988C175.843 129.11 175.7 129.081 175.567 129.024C175.434 128.967 175.314 128.883 175.215 128.777C175.116 128.671 175.04 128.546 174.992 128.41C174.944 128.273 174.925 128.128 174.936 127.983C174.947 127.684 175.073 127.4 175.288 127.19C175.503 126.981 175.79 126.862 176.09 126.857H186.081C186.226 126.856 186.37 126.885 186.503 126.942C186.636 126.999 186.756 127.084 186.855 127.189C186.954 127.295 187.029 127.42 187.078 127.557C187.126 127.694 187.145 127.839 187.134 127.983C187.122 128.283 186.996 128.567 186.782 128.776C186.567 128.986 186.28 129.105 185.98 129.109Z" fill="black"/>
<path d="M205.844 129.109H195.852C195.708 129.11 195.564 129.081 195.431 129.024C195.298 128.967 195.178 128.883 195.079 128.777C194.98 128.671 194.904 128.546 194.856 128.41C194.808 128.273 194.789 128.128 194.8 127.983C194.811 127.684 194.937 127.4 195.152 127.19C195.367 126.981 195.654 126.862 195.954 126.857H205.94C206.085 126.856 206.229 126.885 206.362 126.942C206.495 126.999 206.616 127.083 206.715 127.189C206.814 127.295 206.891 127.42 206.94 127.557C206.988 127.693 207.008 127.839 206.998 127.983C206.987 128.283 206.86 128.567 206.646 128.776C206.431 128.986 206.144 129.105 205.844 129.109Z" fill="black"/>
</g>
<path d="M107.077 150.37H94.0621C93.7767 150.371 93.494 150.314 93.2314 150.202C92.9687 150.091 92.7316 149.926 92.5346 149.72C92.3376 149.513 92.1847 149.269 92.0854 149.001C91.986 148.734 91.9423 148.449 91.9568 148.163L92.5197 135.149C92.5539 134.557 92.811 134.001 93.2393 133.591C93.6676 133.182 94.2352 132.95 94.8277 132.942H107.842C108.128 132.941 108.41 132.998 108.673 133.11C108.936 133.222 109.173 133.386 109.37 133.593C109.567 133.799 109.72 134.044 109.819 134.311C109.918 134.579 109.962 134.864 109.947 135.149L109.385 148.163C109.349 148.755 109.092 149.31 108.664 149.72C108.236 150.129 107.669 150.361 107.077 150.37Z" fill="#3CC7F5"/>
<path d="M126.941 150.37H113.927C113.641 150.372 113.358 150.316 113.095 150.204C112.832 150.092 112.595 149.928 112.397 149.722C112.2 149.515 112.047 149.27 111.948 149.002C111.849 148.734 111.806 148.449 111.821 148.163L112.384 135.149C112.418 134.557 112.676 134.001 113.104 133.591C113.532 133.182 114.1 132.95 114.692 132.942H127.724C128.009 132.941 128.292 132.998 128.555 133.11C128.818 133.222 129.055 133.386 129.253 133.592C129.45 133.799 129.604 134.043 129.704 134.311C129.804 134.578 129.848 134.864 129.835 135.149L129.243 148.163C129.211 148.755 128.955 149.311 128.527 149.721C128.1 150.13 127.533 150.362 126.941 150.37Z" fill="#3CC7F5"/>
<path d="M146.801 150.37H133.792C133.506 150.371 133.223 150.314 132.961 150.202C132.698 150.091 132.46 149.927 132.263 149.72C132.065 149.514 131.912 149.269 131.812 149.002C131.712 148.734 131.667 148.449 131.681 148.164L132.244 135.149C132.278 134.557 132.535 134.001 132.964 133.591C133.392 133.182 133.96 132.95 134.552 132.942H147.561C147.847 132.94 148.13 132.997 148.393 133.109C148.656 133.22 148.893 133.384 149.09 133.591C149.287 133.798 149.44 134.042 149.539 134.31C149.638 134.578 149.682 134.864 149.666 135.149L149.103 148.164C149.069 148.754 148.813 149.31 148.386 149.719C147.959 150.129 147.392 150.361 146.801 150.37Z" fill="#3CC7F5"/>
<path d="M166.666 150.37H153.674C153.388 150.372 153.105 150.315 152.842 150.204C152.578 150.093 152.341 149.928 152.143 149.722C151.945 149.515 151.792 149.27 151.692 149.003C151.593 148.735 151.549 148.449 151.563 148.163L152.126 135.149C152.159 134.558 152.415 134.001 152.842 133.592C153.27 133.182 153.837 132.95 154.428 132.942H167.443C167.728 132.941 168.011 132.998 168.274 133.11C168.536 133.222 168.773 133.386 168.97 133.593C169.168 133.799 169.32 134.044 169.42 134.311C169.519 134.579 169.563 134.864 169.548 135.149L168.985 148.163C168.951 148.757 168.692 149.315 168.262 149.725C167.831 150.135 167.261 150.365 166.666 150.37Z" fill="#3CC7F5"/>
<path d="M186.531 150.37H173.516C173.231 150.371 172.948 150.314 172.685 150.202C172.423 150.091 172.186 149.926 171.989 149.72C171.792 149.513 171.639 149.269 171.539 149.001C171.44 148.734 171.396 148.449 171.411 148.164L171.974 135.149C172.008 134.557 172.265 134.001 172.693 133.591C173.122 133.182 173.689 132.95 174.282 132.942H187.291C187.577 132.941 187.86 132.997 188.123 133.108C188.386 133.22 188.624 133.384 188.822 133.591C189.019 133.797 189.173 134.042 189.273 134.31C189.372 134.578 189.416 134.863 189.402 135.149L188.839 148.164C188.803 148.755 188.546 149.31 188.118 149.72C187.69 150.129 187.123 150.361 186.531 150.37Z" fill="#3CC7F5"/>
<path d="M206.391 150.37H193.382C193.096 150.372 192.813 150.316 192.55 150.204C192.287 150.092 192.05 149.928 191.852 149.722C191.655 149.515 191.502 149.27 191.403 149.002C191.304 148.734 191.261 148.449 191.276 148.163L191.839 135.149C191.874 134.557 192.131 134.001 192.559 133.591C192.987 133.182 193.555 132.95 194.147 132.942H207.156C207.442 132.941 207.725 132.998 207.988 133.11C208.251 133.222 208.488 133.386 208.686 133.592C208.883 133.799 209.036 134.043 209.136 134.311C209.236 134.578 209.281 134.864 209.267 135.149L208.676 148.163C208.643 148.752 208.39 149.306 207.966 149.715C207.542 150.124 206.98 150.358 206.391 150.37Z" fill="#3CC7F5"/>
<g opacity="0.8">
<path d="M107.077 150.37H94.0621C93.7767 150.371 93.494 150.314 93.2314 150.202C92.9687 150.091 92.7316 149.926 92.5346 149.72C92.3376 149.513 92.1847 149.269 92.0854 149.001C91.986 148.734 91.9423 148.449 91.9568 148.163L92.5197 135.149C92.5539 134.557 92.811 134.001 93.2393 133.591C93.6676 133.182 94.2352 132.95 94.8277 132.942H107.842C108.128 132.941 108.41 132.998 108.673 133.11C108.936 133.222 109.173 133.386 109.37 133.593C109.567 133.799 109.72 134.044 109.819 134.311C109.918 134.579 109.962 134.864 109.947 135.149L109.385 148.163C109.349 148.755 109.092 149.31 108.664 149.72C108.236 150.129 107.669 150.361 107.077 150.37Z" fill="#FAFAFA"/>
<path d="M126.942 150.37H113.928C113.642 150.372 113.359 150.316 113.096 150.204C112.833 150.092 112.595 149.928 112.398 149.722C112.201 149.515 112.048 149.27 111.949 149.002C111.85 148.734 111.807 148.449 111.822 148.163L112.385 135.149C112.419 134.557 112.677 134.001 113.105 133.591C113.533 133.182 114.101 132.95 114.693 132.942H127.725C128.01 132.941 128.293 132.998 128.556 133.11C128.819 133.222 129.056 133.386 129.254 133.592C129.451 133.799 129.605 134.043 129.705 134.311C129.805 134.578 129.849 134.864 129.835 135.149L129.244 148.163C129.212 148.755 128.956 149.311 128.528 149.721C128.101 150.13 127.534 150.362 126.942 150.37Z" fill="#FAFAFA"/>
<path d="M146.801 150.37H133.792C133.506 150.371 133.223 150.314 132.961 150.202C132.698 150.091 132.46 149.927 132.263 149.72C132.065 149.514 131.912 149.269 131.812 149.002C131.712 148.734 131.667 148.449 131.681 148.164L132.244 135.149C132.278 134.557 132.535 134.001 132.964 133.591C133.392 133.182 133.96 132.95 134.552 132.942H147.561C147.847 132.94 148.13 132.997 148.393 133.109C148.656 133.22 148.893 133.384 149.09 133.591C149.287 133.798 149.44 134.042 149.539 134.31C149.638 134.578 149.682 134.864 149.666 135.149L149.103 148.164C149.069 148.754 148.813 149.31 148.386 149.719C147.959 150.129 147.392 150.361 146.801 150.37Z" fill="#FAFAFA"/>
<path d="M166.666 150.37H153.674C153.388 150.372 153.105 150.315 152.842 150.204C152.578 150.093 152.341 149.928 152.143 149.722C151.945 149.515 151.792 149.27 151.692 149.003C151.593 148.735 151.549 148.449 151.563 148.163L152.126 135.149C152.159 134.558 152.415 134.001 152.842 133.592C153.27 133.182 153.837 132.95 154.428 132.942H167.443C167.728 132.941 168.011 132.998 168.274 133.11C168.536 133.222 168.773 133.386 168.97 133.593C169.168 133.799 169.32 134.044 169.42 134.311C169.519 134.579 169.563 134.864 169.548 135.149L168.985 148.163C168.951 148.757 168.692 149.315 168.262 149.725C167.831 150.135 167.261 150.365 166.666 150.37Z" fill="#FAFAFA"/>
<path d="M186.532 150.37H173.517C173.232 150.371 172.949 150.314 172.686 150.202C172.424 150.091 172.187 149.926 171.99 149.72C171.793 149.513 171.64 149.269 171.54 149.001C171.441 148.734 171.397 148.449 171.412 148.164L171.975 135.149C172.009 134.557 172.266 134.001 172.694 133.591C173.123 133.182 173.69 132.95 174.283 132.942H187.292C187.578 132.941 187.861 132.997 188.124 133.108C188.387 133.22 188.625 133.384 188.823 133.591C189.02 133.797 189.174 134.042 189.273 134.31C189.373 134.578 189.417 134.863 189.403 135.149L188.84 148.164C188.804 148.755 188.547 149.31 188.119 149.72C187.691 150.129 187.124 150.361 186.532 150.37Z" fill="#FAFAFA"/>
<path d="M206.391 150.37H193.382C193.096 150.372 192.813 150.316 192.55 150.204C192.287 150.092 192.05 149.928 191.852 149.722C191.655 149.515 191.502 149.27 191.403 149.002C191.304 148.734 191.261 148.449 191.276 148.163L191.839 135.149C191.874 134.557 192.131 134.001 192.559 133.591C192.987 133.182 193.555 132.95 194.147 132.942H207.156C207.442 132.941 207.725 132.998 207.988 133.11C208.251 133.222 208.488 133.386 208.686 133.592C208.883 133.799 209.036 134.043 209.136 134.311C209.236 134.578 209.281 134.864 209.267 135.149L208.676 148.163C208.643 148.752 208.39 149.306 207.966 149.715C207.542 150.124 206.98 150.358 206.391 150.37Z" fill="#FAFAFA"/>
</g>
<path d="M106.164 170.562H93.15C92.8646 170.563 92.5819 170.506 92.3193 170.394C92.0566 170.282 91.8195 170.118 91.6225 169.912C91.4255 169.705 91.2726 169.461 91.1732 169.193C91.0739 168.925 91.0302 168.64 91.0447 168.355L91.6076 155.341C91.6431 154.75 91.9006 154.194 92.3286 153.785C92.7566 153.375 93.3235 153.143 93.9156 153.134H106.953C107.238 153.133 107.521 153.19 107.783 153.302C108.046 153.414 108.283 153.578 108.48 153.785C108.677 153.991 108.83 154.236 108.929 154.503C109.029 154.771 109.072 155.056 109.058 155.341L108.495 168.355C108.459 168.95 108.199 169.509 107.766 169.919C107.333 170.329 106.76 170.559 106.164 170.562Z" fill="#3CC7F5"/>
<path d="M126.03 170.562H113.015C112.73 170.563 112.447 170.506 112.184 170.394C111.922 170.282 111.685 170.118 111.488 169.912C111.291 169.705 111.138 169.461 111.038 169.193C110.939 168.926 110.895 168.64 110.91 168.355L111.473 155.341C111.507 154.749 111.764 154.193 112.192 153.783C112.621 153.374 113.188 153.142 113.781 153.134H126.79C127.078 153.132 127.363 153.189 127.628 153.302C127.894 153.415 128.133 153.581 128.331 153.79C128.53 153.999 128.683 154.246 128.782 154.517C128.881 154.788 128.923 155.076 128.906 155.363L128.343 168.355C128.31 168.948 128.053 169.507 127.623 169.916C127.193 170.326 126.624 170.557 126.03 170.562Z" fill="#3CC7F5"/>
<path d="M145.889 170.562H132.88C132.594 170.564 132.311 170.507 132.048 170.396C131.785 170.284 131.548 170.12 131.35 169.914C131.153 169.707 131 169.462 130.901 169.194C130.802 168.926 130.759 168.641 130.775 168.355L131.337 155.341C131.372 154.749 131.629 154.193 132.057 153.783C132.485 153.374 133.053 153.142 133.645 153.134H146.654C146.94 153.132 147.223 153.189 147.486 153.3C147.749 153.412 147.986 153.576 148.184 153.783C148.381 153.989 148.534 154.234 148.633 154.502C148.732 154.77 148.775 155.056 148.759 155.341L148.197 168.355C148.162 168.947 147.905 169.504 147.477 169.913C147.049 170.323 146.481 170.554 145.889 170.562Z" fill="#3CC7F5"/>
<path d="M165.754 170.562H152.745C152.46 170.563 152.177 170.506 151.914 170.394C151.651 170.282 151.413 170.118 151.216 169.912C151.018 169.705 150.865 169.461 150.765 169.193C150.665 168.926 150.621 168.641 150.634 168.355L151.197 155.341C151.23 154.75 151.486 154.193 151.913 153.783C152.341 153.374 152.908 153.142 153.499 153.134H166.514C166.804 153.129 167.092 153.184 167.359 153.295C167.627 153.407 167.868 153.572 168.069 153.782C168.269 153.991 168.424 154.24 168.524 154.512C168.623 154.784 168.665 155.074 168.647 155.363L168.084 168.378C168.045 168.969 167.782 169.523 167.349 169.929C166.917 170.334 166.347 170.56 165.754 170.562Z" fill="#3CC7F5"/>
<path d="M185.62 170.562H172.605C172.32 170.563 172.037 170.506 171.774 170.394C171.512 170.282 171.275 170.118 171.078 169.911C170.881 169.705 170.728 169.46 170.628 169.193C170.529 168.925 170.485 168.64 170.5 168.355L171.063 155.34C171.093 154.744 171.349 154.182 171.778 153.768C172.208 153.354 172.78 153.119 173.376 153.111H186.391C186.676 153.11 186.959 153.167 187.221 153.279C187.484 153.391 187.721 153.555 187.918 153.762C188.115 153.968 188.268 154.213 188.367 154.48C188.467 154.748 188.511 155.033 188.496 155.318L187.933 168.332C187.903 168.928 187.647 169.491 187.217 169.905C186.788 170.319 186.216 170.554 185.62 170.562Z" fill="#3CC7F5"/>
<path d="M205.462 170.562H192.47C192.184 170.564 191.901 170.507 191.638 170.396C191.375 170.284 191.137 170.12 190.94 169.914C190.743 169.707 190.59 169.462 190.491 169.194C190.392 168.926 190.349 168.641 190.364 168.355L190.927 155.341C190.961 154.749 191.219 154.193 191.647 153.783C192.075 153.374 192.643 153.142 193.235 153.134H206.244C206.53 153.133 206.813 153.19 207.076 153.302C207.339 153.414 207.576 153.578 207.773 153.784C207.971 153.991 208.124 154.235 208.224 154.503C208.324 154.77 208.369 155.056 208.355 155.341L207.764 168.355C207.731 168.946 207.475 169.503 207.048 169.913C206.62 170.322 206.054 170.554 205.462 170.562Z" fill="#3CC7F5"/>
<g opacity="0.8">
<path d="M106.164 170.561H93.15C92.8646 170.563 92.5819 170.506 92.3193 170.394C92.0566 170.282 91.8195 170.118 91.6225 169.911C91.4255 169.705 91.2726 169.46 91.1732 169.193C91.0739 168.925 91.0302 168.64 91.0447 168.355L91.6076 155.34C91.6431 154.749 91.9006 154.193 92.3286 153.784C92.7566 153.375 93.3235 153.143 93.9156 153.134H106.953C107.238 153.133 107.521 153.19 107.783 153.302C108.046 153.413 108.283 153.578 108.48 153.784C108.677 153.991 108.83 154.235 108.929 154.503C109.029 154.77 109.072 155.055 109.058 155.34L108.495 168.355C108.459 168.95 108.199 169.509 107.766 169.919C107.333 170.328 106.76 170.558 106.164 170.561Z" fill="#FAFAFA"/>
<path d="M126.03 170.562H113.015C112.73 170.563 112.447 170.506 112.184 170.394C111.922 170.282 111.685 170.118 111.488 169.911C111.291 169.705 111.138 169.46 111.038 169.193C110.939 168.925 110.895 168.64 110.91 168.355L111.473 155.34C111.507 154.749 111.764 154.192 112.192 153.783C112.621 153.373 113.188 153.141 113.781 153.134H126.79C127.078 153.132 127.363 153.189 127.628 153.302C127.894 153.414 128.133 153.58 128.331 153.789C128.53 153.998 128.683 154.246 128.782 154.517C128.881 154.787 128.923 155.075 128.906 155.363L128.343 168.355C128.31 168.948 128.053 169.506 127.623 169.916C127.193 170.326 126.624 170.557 126.03 170.562Z" fill="#FAFAFA"/>
<path d="M145.889 170.562H132.88C132.594 170.563 132.311 170.507 132.048 170.395C131.785 170.284 131.548 170.12 131.35 169.913C131.153 169.706 131 169.462 130.901 169.194C130.802 168.926 130.759 168.64 130.775 168.355L131.337 155.34C131.372 154.749 131.629 154.192 132.057 153.783C132.485 153.373 133.053 153.141 133.645 153.134H146.654C146.94 153.132 147.223 153.188 147.486 153.3C147.749 153.411 147.986 153.576 148.184 153.782C148.381 153.989 148.534 154.234 148.633 154.502C148.732 154.77 148.775 155.055 148.759 155.34L148.197 168.355C148.162 168.946 147.905 169.503 147.477 169.913C147.049 170.322 146.481 170.554 145.889 170.562Z" fill="#FAFAFA"/>
<path d="M165.754 170.561H152.745C152.46 170.562 152.177 170.505 151.914 170.394C151.651 170.282 151.413 170.118 151.216 169.911C151.018 169.705 150.865 169.46 150.765 169.193C150.665 168.925 150.621 168.64 150.634 168.355L151.197 155.34C151.23 154.749 151.486 154.193 151.913 153.783C152.341 153.373 152.908 153.141 153.499 153.134H166.514C166.804 153.128 167.092 153.183 167.359 153.295C167.627 153.406 167.868 153.572 168.069 153.781C168.269 153.991 168.424 154.239 168.524 154.511C168.623 154.784 168.665 155.073 168.647 155.363L168.084 168.377C168.045 168.969 167.782 169.523 167.349 169.928C166.917 170.334 166.347 170.56 165.754 170.561Z" fill="#FAFAFA"/>
<path d="M185.62 170.562H172.605C172.32 170.563 172.037 170.506 171.774 170.394C171.512 170.282 171.275 170.118 171.078 169.911C170.881 169.705 170.728 169.46 170.628 169.193C170.529 168.925 170.485 168.64 170.5 168.355L171.063 155.34C171.093 154.744 171.349 154.182 171.778 153.768C172.208 153.354 172.78 153.119 173.376 153.111H186.391C186.676 153.11 186.959 153.167 187.221 153.279C187.484 153.391 187.721 153.555 187.918 153.762C188.115 153.968 188.268 154.213 188.367 154.48C188.467 154.748 188.511 155.033 188.496 155.318L187.933 168.332C187.903 168.928 187.647 169.491 187.217 169.905C186.788 170.319 186.216 170.554 185.62 170.562Z" fill="#FAFAFA"/>
<path d="M205.462 170.561H192.47C192.184 170.563 191.901 170.507 191.638 170.395C191.375 170.284 191.137 170.12 190.94 169.913C190.743 169.706 190.59 169.461 190.491 169.194C190.392 168.926 190.349 168.64 190.364 168.355L190.927 155.34C190.961 154.749 191.219 154.192 191.647 153.783C192.075 153.373 192.643 153.141 193.235 153.134H206.244C206.53 153.133 206.813 153.19 207.076 153.302C207.339 153.413 207.576 153.577 207.773 153.784C207.971 153.99 208.124 154.235 208.224 154.502C208.324 154.77 208.369 155.055 208.355 155.34L207.764 168.355C207.731 168.946 207.475 169.503 207.048 169.912C206.62 170.322 206.054 170.554 205.462 170.561Z" fill="#FAFAFA"/>
</g>
<path d="M105.264 190.748H92.2382C91.9525 190.75 91.6695 190.693 91.4065 190.582C91.1434 190.47 90.906 190.306 90.7088 190.099C90.5116 189.893 90.3588 189.648 90.2598 189.38C90.1607 189.112 90.1175 188.826 90.1329 188.541L90.6958 175.532C90.73 174.941 90.9871 174.384 91.4154 173.975C91.8437 173.565 92.4113 173.333 93.0038 173.326H106.018C106.304 173.324 106.587 173.38 106.85 173.492C107.113 173.603 107.35 173.768 107.548 173.974C107.745 174.181 107.898 174.426 107.997 174.694C108.096 174.962 108.139 175.247 108.124 175.532L107.561 188.541C107.528 189.131 107.273 189.687 106.847 190.097C106.42 190.506 105.855 190.739 105.264 190.748Z" fill="#3CC7F5"/>
<path d="M125.118 190.748H112.103C111.818 190.75 111.535 190.693 111.272 190.582C111.009 190.47 110.771 190.306 110.574 190.099C110.377 189.893 110.224 189.648 110.125 189.38C110.026 189.112 109.983 188.827 109.998 188.541L110.561 175.532C110.594 174.94 110.851 174.383 111.279 173.973C111.708 173.563 112.276 173.332 112.869 173.326H125.878C126.164 173.323 126.448 173.379 126.711 173.49C126.975 173.601 127.213 173.765 127.411 173.972C127.609 174.179 127.762 174.424 127.861 174.692C127.961 174.961 128.004 175.247 127.989 175.532L127.426 188.541C127.394 189.134 127.138 189.692 126.709 190.102C126.28 190.512 125.711 190.743 125.118 190.748Z" fill="#3CC7F5"/>
<path d="M144.978 190.748H131.969C131.683 190.75 131.4 190.693 131.137 190.582C130.874 190.47 130.637 190.306 130.439 190.099C130.242 189.893 130.089 189.648 129.99 189.38C129.891 189.112 129.848 188.826 129.863 188.541L130.426 175.532C130.459 174.94 130.716 174.383 131.144 173.973C131.573 173.563 132.141 173.332 132.734 173.326H145.794C146.08 173.324 146.363 173.38 146.626 173.492C146.89 173.603 147.127 173.767 147.325 173.974C147.523 174.181 147.676 174.425 147.776 174.693C147.875 174.961 147.919 175.247 147.905 175.532L147.314 188.541C147.28 189.138 147.02 189.699 146.585 190.11C146.151 190.52 145.575 190.749 144.978 190.748Z" fill="#3CC7F5"/>
<path d="M164.842 190.748H151.833C151.547 190.75 151.264 190.693 151.001 190.582C150.738 190.47 150.5 190.306 150.302 190.1C150.105 189.893 149.951 189.648 149.851 189.38C149.752 189.112 149.708 188.827 149.722 188.541L150.285 175.532C150.317 174.941 150.572 174.383 151 173.974C151.428 173.564 151.995 173.332 152.588 173.326H165.602C165.888 173.324 166.171 173.38 166.434 173.492C166.697 173.603 166.934 173.768 167.132 173.974C167.329 174.181 167.482 174.426 167.581 174.694C167.68 174.962 167.723 175.247 167.707 175.532L167.145 188.541C167.112 189.132 166.856 189.689 166.428 190.098C166.001 190.508 165.434 190.74 164.842 190.748Z" fill="#3CC7F5"/>
<path d="M184.708 190.748H171.687C171.402 190.75 171.119 190.693 170.856 190.582C170.593 190.47 170.355 190.306 170.158 190.099C169.961 189.893 169.808 189.648 169.709 189.38C169.61 189.112 169.567 188.826 169.582 188.541L170.145 175.532C170.179 174.941 170.436 174.384 170.865 173.975C171.293 173.565 171.86 173.333 172.453 173.326H185.467C185.753 173.324 186.036 173.38 186.299 173.492C186.562 173.603 186.8 173.768 186.997 173.974C187.194 174.181 187.347 174.426 187.446 174.694C187.545 174.962 187.588 175.247 187.573 175.532L187.01 188.541C186.976 189.132 186.719 189.688 186.292 190.097C185.865 190.506 185.299 190.739 184.708 190.748Z" fill="#3CC7F5"/>
<path d="M204.572 190.748H191.558C191.272 190.75 190.989 190.693 190.726 190.582C190.463 190.47 190.225 190.306 190.028 190.099C189.831 189.893 189.678 189.648 189.579 189.38C189.48 189.112 189.437 188.826 189.452 188.541L190.015 175.532C190.048 174.94 190.305 174.383 190.733 173.973C191.162 173.563 191.73 173.332 192.323 173.326H205.332C205.618 173.324 205.901 173.38 206.164 173.492C206.428 173.603 206.665 173.767 206.863 173.974C207.061 174.181 207.214 174.425 207.314 174.693C207.414 174.961 207.457 175.247 207.443 175.532L206.852 188.541C206.821 189.129 206.568 189.683 206.145 190.092C205.723 190.502 205.16 190.736 204.572 190.748Z" fill="#3CC7F5"/>
<g opacity="0.8">
<path d="M105.264 190.748H92.2382C91.9525 190.75 91.6695 190.693 91.4065 190.582C91.1434 190.47 90.906 190.306 90.7088 190.099C90.5116 189.893 90.3588 189.648 90.2598 189.38C90.1607 189.112 90.1175 188.826 90.1329 188.541L90.6958 175.532C90.73 174.941 90.9871 174.384 91.4154 173.975C91.8437 173.565 92.4113 173.333 93.0038 173.326H106.018C106.304 173.324 106.587 173.38 106.85 173.492C107.113 173.603 107.35 173.768 107.548 173.974C107.745 174.181 107.898 174.426 107.997 174.694C108.096 174.962 108.139 175.247 108.124 175.532L107.561 188.541C107.528 189.131 107.273 189.687 106.847 190.097C106.42 190.506 105.855 190.739 105.264 190.748Z" fill="#FAFAFA"/>
<path d="M125.118 190.748H112.103C111.818 190.75 111.535 190.693 111.272 190.582C111.009 190.47 110.771 190.306 110.574 190.099C110.377 189.893 110.224 189.648 110.125 189.38C110.026 189.112 109.983 188.827 109.998 188.541L110.561 175.532C110.594 174.94 110.851 174.383 111.279 173.973C111.708 173.563 112.276 173.332 112.869 173.326H125.878C126.164 173.323 126.448 173.379 126.711 173.49C126.975 173.601 127.213 173.765 127.411 173.972C127.609 174.179 127.762 174.424 127.861 174.692C127.961 174.961 128.004 175.247 127.989 175.532L127.426 188.541C127.394 189.134 127.138 189.692 126.709 190.102C126.28 190.512 125.711 190.743 125.118 190.748Z" fill="#FAFAFA"/>
<path d="M144.978 190.748H131.969C131.683 190.75 131.4 190.693 131.137 190.582C130.874 190.47 130.637 190.306 130.439 190.099C130.242 189.893 130.089 189.648 129.99 189.38C129.891 189.112 129.848 188.826 129.863 188.541L130.426 175.532C130.459 174.94 130.716 174.383 131.144 173.973C131.573 173.563 132.141 173.332 132.734 173.326H145.794C146.08 173.324 146.363 173.38 146.626 173.492C146.89 173.603 147.127 173.767 147.325 173.974C147.523 174.181 147.676 174.425 147.776 174.693C147.875 174.961 147.919 175.247 147.905 175.532L147.314 188.541C147.28 189.138 147.02 189.699 146.585 190.11C146.151 190.52 145.575 190.749 144.978 190.748Z" fill="#FAFAFA"/>
<path d="M164.842 190.748H151.833C151.547 190.75 151.264 190.693 151.001 190.582C150.738 190.47 150.5 190.306 150.302 190.1C150.105 189.893 149.951 189.648 149.851 189.38C149.752 189.112 149.708 188.827 149.722 188.541L150.285 175.532C150.317 174.941 150.572 174.383 151 173.974C151.428 173.564 151.995 173.332 152.588 173.326H165.602C165.888 173.324 166.171 173.38 166.434 173.492C166.697 173.603 166.934 173.768 167.132 173.974C167.329 174.181 167.482 174.426 167.581 174.694C167.68 174.962 167.723 175.247 167.707 175.532L167.145 188.541C167.112 189.132 166.856 189.689 166.428 190.098C166.001 190.508 165.434 190.74 164.842 190.748Z" fill="#FAFAFA"/>
<path d="M184.708 190.748H171.687C171.402 190.75 171.119 190.693 170.856 190.582C170.593 190.47 170.355 190.306 170.158 190.099C169.961 189.893 169.808 189.648 169.709 189.38C169.61 189.112 169.567 188.826 169.582 188.541L170.145 175.532C170.179 174.941 170.436 174.384 170.865 173.975C171.293 173.565 171.86 173.333 172.453 173.326H185.467C185.753 173.324 186.036 173.38 186.299 173.492C186.562 173.603 186.8 173.768 186.997 173.974C187.194 174.181 187.347 174.426 187.446 174.694C187.545 174.962 187.588 175.247 187.573 175.532L187.01 188.541C186.976 189.132 186.719 189.688 186.292 190.097C185.865 190.506 185.299 190.739 184.708 190.748Z" fill="#FAFAFA"/>
<path d="M204.572 190.748H191.558C191.272 190.75 190.989 190.693 190.726 190.582C190.463 190.47 190.225 190.306 190.028 190.099C189.831 189.893 189.678 189.648 189.579 189.38C189.48 189.112 189.437 188.826 189.452 188.541L190.015 175.532C190.048 174.94 190.305 174.383 190.733 173.973C191.162 173.563 191.73 173.332 192.323 173.326H205.332C205.618 173.324 205.901 173.38 206.164 173.492C206.428 173.603 206.665 173.767 206.863 173.974C207.061 174.181 207.214 174.425 207.314 174.693C207.414 174.961 207.457 175.247 207.443 175.532L206.852 188.541C206.821 189.129 206.568 189.683 206.145 190.092C205.723 190.502 205.16 190.736 204.572 190.748Z" fill="#FAFAFA"/>
</g>
<path d="M101.577 122.399C96.7807 122.399 93.0205 116.821 93.0205 109.7C93.0205 102.579 96.7807 97.0063 101.577 97.0063C106.373 97.0063 110.139 102.585 110.139 109.7C110.117 110.034 109.969 110.347 109.725 110.575C109.481 110.804 109.159 110.931 108.824 110.931C108.49 110.931 108.168 110.804 107.924 110.575C107.68 110.347 107.532 110.034 107.51 109.7C107.51 104.245 104.797 99.6295 101.577 99.6295C98.3569 99.6295 95.6437 104.245 95.6437 109.7C95.6437 115.155 98.3625 119.77 101.577 119.77C101.757 119.759 101.937 119.784 102.107 119.845C102.276 119.905 102.432 120 102.563 120.123C102.695 120.247 102.8 120.396 102.871 120.561C102.943 120.726 102.98 120.905 102.98 121.085C102.98 121.265 102.943 121.443 102.871 121.609C102.8 121.774 102.695 121.923 102.563 122.046C102.432 122.169 102.276 122.264 102.107 122.325C101.937 122.386 101.757 122.411 101.577 122.399Z" fill="#3CC7F5"/>
<path d="M121.442 122.399C116.646 122.399 112.886 116.821 112.886 109.7C112.886 102.579 116.646 97.0063 121.442 97.0063C126.238 97.0063 130.032 102.585 130.032 109.7C130.01 110.034 129.862 110.347 129.618 110.575C129.374 110.804 129.052 110.931 128.718 110.931C128.383 110.931 128.061 110.804 127.817 110.575C127.573 110.347 127.425 110.034 127.403 109.7C127.403 104.245 124.69 99.6295 121.47 99.6295C118.25 99.6295 115.537 104.245 115.537 109.7C115.537 115.155 118.256 119.77 121.47 119.77C121.804 119.792 122.117 119.94 122.345 120.184C122.574 120.428 122.701 120.75 122.701 121.085C122.701 121.419 122.574 121.741 122.345 121.985C122.117 122.229 121.804 122.377 121.47 122.399H121.442Z" fill="#3CC7F5"/>
<path d="M141.289 122.399C136.488 122.399 132.728 116.821 132.728 109.7C132.728 102.579 136.488 97.0063 141.289 97.0063C146.091 97.0063 149.846 102.585 149.846 109.7C149.846 110.048 149.707 110.381 149.461 110.627C149.216 110.873 148.882 111.012 148.534 111.012C148.186 111.012 147.853 110.873 147.607 110.627C147.361 110.381 147.222 110.048 147.222 109.7C147.222 104.245 144.504 99.6295 141.289 99.6295C138.075 99.6295 135.356 104.245 135.356 109.7C135.356 115.155 138.075 119.77 141.289 119.77C141.623 119.792 141.936 119.94 142.165 120.184C142.393 120.428 142.521 120.75 142.521 121.085C142.521 121.419 142.393 121.741 142.165 121.985C141.936 122.229 141.623 122.377 141.289 122.399Z" fill="#3CC7F5"/>
<path d="M161.172 122.399C156.371 122.399 152.61 116.821 152.61 109.7C152.61 102.579 156.371 97.0063 161.172 97.0063C165.974 97.0063 169.728 102.585 169.728 109.7C169.728 110.048 169.59 110.381 169.344 110.627C169.098 110.873 168.765 111.012 168.417 111.012C168.069 111.012 167.735 110.873 167.489 110.627C167.243 110.381 167.105 110.048 167.105 109.7C167.105 104.245 164.386 99.6295 161.172 99.6295C157.958 99.6295 155.239 104.245 155.239 109.7C155.239 115.155 157.952 119.77 161.172 119.77C161.506 119.792 161.819 119.94 162.048 120.184C162.276 120.428 162.403 120.75 162.403 121.085C162.403 121.419 162.276 121.741 162.048 121.985C161.819 122.229 161.506 122.377 161.172 122.399Z" fill="#3CC7F5"/>
<path d="M181.032 122.399C176.236 122.399 172.476 116.821 172.476 109.7C172.476 102.579 176.236 97.0063 181.032 97.0063C185.828 97.0063 189.594 102.585 189.594 109.7C189.572 110.034 189.424 110.347 189.18 110.575C188.936 110.804 188.614 110.931 188.279 110.931C187.945 110.931 187.623 110.804 187.379 110.575C187.135 110.347 186.987 110.034 186.965 109.7C186.965 104.245 184.252 99.6295 181.032 99.6295C177.812 99.6295 175.099 104.245 175.099 109.7C175.099 115.155 177.818 119.77 181.032 119.77C181.212 119.759 181.392 119.784 181.562 119.845C181.731 119.905 181.887 120 182.018 120.123C182.15 120.247 182.255 120.396 182.326 120.561C182.398 120.726 182.435 120.905 182.435 121.085C182.435 121.265 182.398 121.443 182.326 121.609C182.255 121.774 182.15 121.923 182.018 122.046C181.887 122.169 181.731 122.264 181.562 122.325C181.392 122.386 181.212 122.411 181.032 122.399Z" fill="#3CC7F5"/>
<path d="M200.896 122.399C196.1 122.399 192.34 116.821 192.34 109.7C192.34 102.579 196.1 97.0063 200.896 97.0063C205.692 97.0063 209.458 102.585 209.458 109.7C209.436 110.034 209.288 110.347 209.044 110.575C208.8 110.804 208.478 110.931 208.144 110.931C207.809 110.931 207.487 110.804 207.243 110.575C206.999 110.347 206.851 110.034 206.829 109.7C206.829 104.245 204.11 99.6295 200.896 99.6295C197.682 99.6295 194.963 104.245 194.963 109.7C194.963 115.155 197.682 119.77 200.896 119.77C201.23 119.792 201.543 119.94 201.771 120.184C202 120.428 202.127 120.75 202.127 121.085C202.127 121.419 202 121.741 201.771 121.985C201.543 122.229 201.23 122.377 200.896 122.399Z" fill="#3CC7F5"/>
<g opacity="0.3">
<path d="M101.577 122.399C96.7807 122.399 93.0205 116.821 93.0205 109.7C93.0205 102.579 96.7807 97.0063 101.577 97.0063C106.373 97.0063 110.139 102.585 110.139 109.7C110.117 110.034 109.969 110.347 109.725 110.575C109.481 110.804 109.159 110.931 108.824 110.931C108.49 110.931 108.168 110.804 107.924 110.575C107.68 110.347 107.532 110.034 107.51 109.7C107.51 104.245 104.797 99.6295 101.577 99.6295C98.3569 99.6295 95.6437 104.245 95.6437 109.7C95.6437 115.155 98.3625 119.77 101.577 119.77C101.757 119.759 101.937 119.784 102.107 119.845C102.276 119.905 102.432 120 102.563 120.123C102.695 120.247 102.8 120.396 102.871 120.561C102.943 120.726 102.98 120.905 102.98 121.085C102.98 121.265 102.943 121.443 102.871 121.609C102.8 121.774 102.695 121.923 102.563 122.046C102.432 122.169 102.276 122.264 102.107 122.325C101.937 122.386 101.757 122.411 101.577 122.399Z" fill="black"/>
<path d="M121.442 122.399C116.646 122.399 112.886 116.821 112.886 109.7C112.886 102.579 116.646 97.0063 121.442 97.0063C126.238 97.0063 130.032 102.585 130.032 109.7C130.01 110.034 129.862 110.347 129.618 110.575C129.374 110.804 129.052 110.931 128.718 110.931C128.383 110.931 128.061 110.804 127.817 110.575C127.573 110.347 127.425 110.034 127.403 109.7C127.403 104.245 124.69 99.6295 121.47 99.6295C118.25 99.6295 115.537 104.245 115.537 109.7C115.537 115.155 118.256 119.77 121.47 119.77C121.804 119.792 122.117 119.94 122.345 120.184C122.574 120.428 122.701 120.75 122.701 121.085C122.701 121.419 122.574 121.741 122.345 121.985C122.117 122.229 121.804 122.377 121.47 122.399H121.442Z" fill="black"/>
<path d="M141.289 122.399C136.488 122.399 132.728 116.821 132.728 109.7C132.728 102.579 136.488 97.0063 141.289 97.0063C146.091 97.0063 149.846 102.585 149.846 109.7C149.846 110.048 149.707 110.381 149.461 110.627C149.216 110.873 148.882 111.012 148.534 111.012C148.186 111.012 147.853 110.873 147.607 110.627C147.361 110.381 147.222 110.048 147.222 109.7C147.222 104.245 144.504 99.6295 141.289 99.6295C138.075 99.6295 135.356 104.245 135.356 109.7C135.356 115.155 138.075 119.77 141.289 119.77C141.623 119.792 141.936 119.94 142.165 120.184C142.393 120.428 142.521 120.75 142.521 121.085C142.521 121.419 142.393 121.741 142.165 121.985C141.936 122.229 141.623 122.377 141.289 122.399Z" fill="black"/>
<path d="M161.172 122.399C156.371 122.399 152.61 116.821 152.61 109.7C152.61 102.579 156.371 97.0063 161.172 97.0063C165.974 97.0063 169.728 102.585 169.728 109.7C169.728 110.048 169.59 110.381 169.344 110.627C169.098 110.873 168.765 111.012 168.417 111.012C168.069 111.012 167.735 110.873 167.489 110.627C167.243 110.381 167.105 110.048 167.105 109.7C167.105 104.245 164.386 99.6295 161.172 99.6295C157.958 99.6295 155.239 104.245 155.239 109.7C155.239 115.155 157.952 119.77 161.172 119.77C161.506 119.792 161.819 119.94 162.048 120.184C162.276 120.428 162.403 120.75 162.403 121.085C162.403 121.419 162.276 121.741 162.048 121.985C161.819 122.229 161.506 122.377 161.172 122.399Z" fill="black"/>
<path d="M181.032 122.399C176.236 122.399 172.476 116.821 172.476 109.7C172.476 102.579 176.236 97.0063 181.032 97.0063C185.828 97.0063 189.594 102.585 189.594 109.7C189.572 110.034 189.424 110.347 189.18 110.575C188.936 110.804 188.614 110.931 188.279 110.931C187.945 110.931 187.623 110.804 187.379 110.575C187.135 110.347 186.987 110.034 186.965 109.7C186.965 104.245 184.252 99.6295 181.032 99.6295C177.812 99.6295 175.099 104.245 175.099 109.7C175.099 115.155 177.818 119.77 181.032 119.77C181.212 119.759 181.392 119.784 181.562 119.845C181.731 119.905 181.887 120 182.018 120.123C182.15 120.247 182.255 120.396 182.326 120.561C182.398 120.726 182.435 120.905 182.435 121.085C182.435 121.265 182.398 121.443 182.326 121.609C182.255 121.774 182.15 121.923 182.018 122.046C181.887 122.169 181.731 122.264 181.562 122.325C181.392 122.386 181.212 122.411 181.032 122.399Z" fill="black"/>
<path d="M200.896 122.399C196.1 122.399 192.34 116.821 192.34 109.7C192.34 102.579 196.1 97.0063 200.896 97.0063C205.692 97.0063 209.458 102.585 209.458 109.7C209.436 110.034 209.288 110.347 209.044 110.575C208.8 110.804 208.478 110.931 208.144 110.931C207.809 110.931 207.487 110.804 207.243 110.575C206.999 110.347 206.851 110.034 206.829 109.7C206.829 104.245 204.11 99.6295 200.896 99.6295C197.682 99.6295 194.963 104.245 194.963 109.7C194.963 115.155 197.682 119.77 200.896 119.77C201.23 119.792 201.543 119.94 201.771 120.184C202 120.428 202.127 120.75 202.127 121.085C202.127 121.419 202 121.741 201.771 121.985C201.543 122.229 201.23 122.377 200.896 122.399Z" fill="black"/>
</g>
<path d="M162.5 151.096C157.907 150.184 152.751 151.248 150.91 156.089C149.43 159.985 151.327 164.206 155.413 165.237C159.016 166.143 165.231 165.034 166.514 160.88C167.983 156.129 162.011 154.586 158.661 154.305C157.654 154.22 157.659 155.797 158.661 155.881C160.187 156.01 161.932 156.095 163.283 156.934C166.097 158.696 164.938 161.521 162.54 162.872C160.142 164.223 156.466 164.561 154.096 163.064C151.507 161.414 151.422 157.789 152.97 155.425C155.003 152.301 158.712 151.952 162.056 152.61C163.046 152.807 163.469 151.288 162.472 151.091L162.5 151.096Z" fill="#3CC7F5"/>
<path opacity="0.1" d="M162.5 151.096C157.907 150.184 152.751 151.248 150.91 156.089C149.43 159.985 151.327 164.206 155.413 165.237C159.016 166.143 165.231 165.034 166.514 160.88C167.983 156.129 162.011 154.586 158.661 154.305C157.654 154.22 157.659 155.797 158.661 155.881C160.187 156.01 161.932 156.095 163.283 156.934C166.097 158.696 164.938 161.521 162.54 162.872C160.142 164.223 156.466 164.561 154.096 163.064C151.507 161.414 151.422 157.789 152.97 155.425C155.003 152.301 158.712 151.952 162.056 152.61C163.046 152.807 163.469 151.288 162.472 151.091L162.5 151.096Z" fill="#FAFAFA"/>
<path d="M111.821 132.965C116.214 138.788 121.112 144.213 126.457 149.177C127.2 149.869 128.32 148.754 127.583 148.051C122.329 143.185 117.513 137.868 113.189 132.16C112.587 131.361 111.219 132.16 111.833 132.954L111.821 132.965Z" fill="#3CC7F5"/>
<path d="M113.449 148.518C116.77 142.614 122.585 137.575 128.084 133.72C128.906 133.157 128.124 131.772 127.291 132.357C121.571 136.376 115.56 141.567 112.092 147.719C111.997 147.898 111.975 148.107 112.03 148.303C112.085 148.498 112.213 148.665 112.388 148.768C112.563 148.871 112.771 148.902 112.968 148.856C113.166 148.809 113.338 148.689 113.449 148.518Z" fill="#3CC7F5"/>
<g opacity="0.2">
<path d="M111.821 132.965C116.214 138.788 121.112 144.213 126.457 149.177C127.2 149.869 128.32 148.754 127.583 148.051C122.329 143.185 117.513 137.868 113.189 132.16C112.587 131.361 111.219 132.16 111.833 132.954L111.821 132.965Z" fill="black"/>
<path d="M113.448 148.518C116.769 142.613 122.584 137.575 128.083 133.719C128.905 133.156 128.123 131.771 127.29 132.357C121.57 136.376 115.559 141.566 112.091 147.719C111.996 147.898 111.974 148.107 112.029 148.302C112.084 148.498 112.212 148.664 112.387 148.767C112.562 148.87 112.77 148.902 112.967 148.855C113.165 148.809 113.337 148.688 113.448 148.518Z" fill="black"/>
</g>
<path d="M174.429 138.003H184.702C184.898 137.986 185.082 137.897 185.215 137.751C185.349 137.606 185.423 137.415 185.423 137.218C185.423 137.02 185.349 136.83 185.215 136.685C185.082 136.539 184.898 136.449 184.702 136.433H174.429C174.232 136.449 174.048 136.539 173.915 136.685C173.781 136.83 173.707 137.02 173.707 137.218C173.707 137.415 173.781 137.606 173.915 137.751C174.048 137.897 174.232 137.986 174.429 138.003Z" fill="#3CC7F5"/>
<path d="M174.311 140.924H180.266C180.475 140.924 180.676 140.841 180.823 140.693C180.971 140.546 181.054 140.345 181.054 140.136C181.054 139.927 180.971 139.727 180.823 139.579C180.676 139.431 180.475 139.348 180.266 139.348H174.311C174.102 139.348 173.901 139.431 173.753 139.579C173.605 139.727 173.522 139.927 173.522 140.136C173.522 140.345 173.605 140.546 173.753 140.693C173.901 140.841 174.102 140.924 174.311 140.924Z" fill="#3CC7F5"/>
<g opacity="0.1">
<path d="M174.429 138.003H184.702C184.898 137.986 185.082 137.897 185.215 137.751C185.349 137.606 185.423 137.415 185.423 137.218C185.423 137.02 185.349 136.83 185.215 136.685C185.082 136.539 184.898 136.449 184.702 136.433H174.429C174.232 136.449 174.048 136.539 173.915 136.685C173.781 136.83 173.707 137.02 173.707 137.218C173.707 137.415 173.781 137.606 173.915 137.751C174.048 137.897 174.232 137.986 174.429 138.003Z" fill="#FAFAFA"/>
<path d="M174.311 140.925H180.266C180.475 140.925 180.676 140.842 180.823 140.694C180.971 140.546 181.054 140.346 181.054 140.137C181.054 139.928 180.971 139.727 180.823 139.579C180.676 139.432 180.475 139.349 180.266 139.349H174.311C174.102 139.349 173.901 139.432 173.753 139.579C173.605 139.727 173.522 139.928 173.522 140.137C173.522 140.346 173.605 140.546 173.753 140.694C173.901 140.842 174.102 140.925 174.311 140.925Z" fill="#FAFAFA"/>
</g>
<path d="M112.896 178.33H121.706C121.915 178.33 122.115 178.247 122.263 178.099C122.411 177.951 122.494 177.751 122.494 177.542C122.494 177.333 122.411 177.133 122.263 176.985C122.115 176.837 121.915 176.754 121.706 176.754H112.896C112.687 176.754 112.487 176.837 112.339 176.985C112.191 177.133 112.108 177.333 112.108 177.542C112.108 177.751 112.191 177.951 112.339 178.099C112.487 178.247 112.687 178.33 112.896 178.33Z" fill="#3CC7F5"/>
<path d="M112.582 181.713H124.009C124.218 181.713 124.419 181.63 124.566 181.482C124.714 181.334 124.797 181.134 124.797 180.925C124.797 180.716 124.714 180.515 124.566 180.368C124.419 180.22 124.218 180.137 124.009 180.137H112.582C112.373 180.137 112.173 180.22 112.025 180.368C111.877 180.515 111.794 180.716 111.794 180.925C111.794 181.134 111.877 181.334 112.025 181.482C112.173 181.63 112.373 181.713 112.582 181.713Z" fill="#3CC7F5"/>
<path d="M112.582 185.197H118.296C118.505 185.197 118.705 185.114 118.853 184.966C119.001 184.819 119.084 184.618 119.084 184.409C119.084 184.2 119.001 184 118.853 183.852C118.705 183.704 118.505 183.621 118.296 183.621H112.582C112.373 183.621 112.173 183.704 112.025 183.852C111.877 184 111.794 184.2 111.794 184.409C111.794 184.618 111.877 184.819 112.025 184.966C112.173 185.114 112.373 185.197 112.582 185.197Z" fill="#3CC7F5"/>
<g opacity="0.1">
<path d="M112.897 178.33H121.707C121.916 178.33 122.116 178.247 122.264 178.099C122.412 177.951 122.495 177.751 122.495 177.542C122.495 177.333 122.412 177.133 122.264 176.985C122.116 176.837 121.916 176.754 121.707 176.754H112.897C112.688 176.754 112.488 176.837 112.34 176.985C112.192 177.133 112.109 177.333 112.109 177.542C112.109 177.751 112.192 177.951 112.34 178.099C112.488 178.247 112.688 178.33 112.897 178.33Z" fill="#FAFAFA"/>
<path d="M112.582 181.713H124.009C124.218 181.713 124.419 181.63 124.566 181.483C124.714 181.335 124.797 181.134 124.797 180.925C124.797 180.716 124.714 180.516 124.566 180.368C124.419 180.22 124.218 180.137 124.009 180.137H112.582C112.373 180.137 112.173 180.22 112.025 180.368C111.877 180.516 111.794 180.716 111.794 180.925C111.794 181.134 111.877 181.335 112.025 181.483C112.173 181.63 112.373 181.713 112.582 181.713Z" fill="#FAFAFA"/>
<path d="M112.582 185.198H118.296C118.505 185.198 118.705 185.115 118.853 184.967C119.001 184.819 119.084 184.619 119.084 184.41C119.084 184.201 119.001 184 118.853 183.852C118.705 183.705 118.505 183.622 118.296 183.622H112.582C112.373 183.622 112.173 183.705 112.025 183.852C111.877 184 111.794 184.201 111.794 184.41C111.794 184.619 111.877 184.819 112.025 184.967C112.173 185.115 112.373 185.198 112.582 185.198Z" fill="#FAFAFA"/>
</g>
<path d="M50.7691 89.9473L53.4316 89.8291L52.227 94.8953C51.2768 94.2447 50.4108 93.479 49.6489 92.6155C49.4291 92.3571 49.3201 92.0225 49.3454 91.6843C49.3707 91.346 49.5283 91.0314 49.784 90.8086L50.7691 89.9473Z" fill="#E4897B"/>
<path d="M56.5216 92.5592L55.3282 96.6797L52.2266 94.884L53.4312 89.8291L56.5216 92.5592Z" fill="#E4897B"/>
<path d="M55.997 68.0971L50.5488 68.6016L63.0444 203.556L68.4926 203.052L55.997 68.0971Z" fill="#3CC7F5"/>
<path opacity="0.3" d="M55.997 68.0971L50.5488 68.6016L63.0444 203.556L68.4926 203.052L55.997 68.0971Z" fill="black"/>
<path d="M66.8955 67.0854L61.4473 67.5898L73.9429 202.544L79.3911 202.04L66.8955 67.0854Z" fill="#3CC7F5"/>
<path opacity="0.3" d="M66.8955 67.0854L61.4473 67.5898L73.9429 202.544L79.3911 202.04L66.8955 67.0854Z" fill="black"/>
<path d="M61.4492 67.5912L56.001 68.0957L68.4966 203.05L73.9448 202.546L61.4492 67.5912Z" fill="#3CC7F5"/>
<path opacity="0.1" d="M61.4492 67.5912L56.001 68.0957L68.4966 203.05L73.9448 202.546L61.4492 67.5912Z" fill="black"/>
<path d="M60.2984 58.1538L55.3955 58.6098L50.5488 68.6014L66.8957 67.0872L60.2984 58.1538Z" fill="#3CC7F5"/>
<g opacity="0.8">
<path d="M60.2984 58.1538L55.3955 58.6098L50.5488 68.6014L66.8957 67.0872L60.2984 58.1538Z" fill="#FAFAFA"/>
</g>
<path d="M57.4736 54.3262L55.3965 58.6099L60.2994 58.154L57.4736 54.3262Z" fill="#263238"/>
<path d="M98.6669 61.9536C99.2298 62.5165 99.6971 63.0513 100.181 63.6423C100.665 64.2334 101.127 64.7682 101.588 65.3311C102.517 66.4569 103.384 67.6446 104.228 68.8549C105.969 71.3156 107.438 73.958 108.608 76.7356C108.749 77.0959 108.878 77.4731 109.013 77.8615L109.216 78.4244C109.327 78.7613 109.407 79.1081 109.452 79.4601C109.574 80.5804 109.426 81.7136 109.019 82.7644C108.411 84.3156 107.56 85.7598 106.497 87.0425C104.618 89.3427 102.454 91.395 100.057 93.1501L97.9352 90.8985C99.6054 88.8105 101.132 86.612 102.506 84.318C103.108 83.338 103.57 82.2789 103.879 81.1714C103.965 80.8996 103.975 80.6096 103.908 80.3326L103.716 79.9161C103.587 79.6403 103.474 79.3532 103.333 79.083C102.142 76.7708 100.748 74.5687 99.1679 72.5026C98.3799 71.4274 97.5467 70.3804 96.7024 69.3334C96.2802 68.8155 95.8524 68.2976 95.4133 67.791L94.1299 66.3105L98.6669 61.9536Z" fill="#E4897B"/>
<path d="M94.5293 92.6151L96.9273 97.3605L99.2746 95.3396L97.3495 91.9678L94.5293 92.6151Z" fill="#E4897B"/>
<path d="M76.4659 64.7342C75.0061 67.515 73.49 70.2639 71.9176 72.9809C71.1464 74.3487 70.3358 75.6941 69.5477 77.0507L68.3375 79.0772L68.0335 79.5838C67.8815 79.8259 67.7126 80.1129 67.5606 80.3043C67.4087 80.4957 67.2567 80.7265 67.1103 80.901C66.964 81.0755 66.8063 81.2725 66.66 81.4358C65.5229 82.6745 64.3123 83.8437 63.0348 84.9371C61.8021 85.9897 60.5693 87.0142 59.2971 87.988C56.7809 89.9526 54.1971 91.7821 51.5177 93.5271L49.5869 91.0953L56.2574 84.5262C57.3494 83.4003 58.4528 82.3421 59.4941 81.2275C60.5174 80.1786 61.4814 79.0736 62.3819 77.9176C62.4907 77.7825 62.5864 77.653 62.669 77.5292C62.7646 77.3941 62.8322 77.2815 62.8997 77.1689C62.958 77.0784 63.0106 76.9844 63.0574 76.8875L63.3163 76.364L64.3577 74.2418C65.0726 72.8401 65.7706 71.4272 66.4967 70.0368C67.934 67.2335 69.4351 64.4622 71 61.7227L76.4659 64.7342Z" fill="#E4897B"/>
<path d="M92.2669 45.7193C92.1937 46.0458 92.3119 46.3554 92.5202 46.4117C92.7285 46.468 92.9593 46.2428 93.0324 45.9164C93.1056 45.5899 92.9818 45.2803 92.7735 45.224C92.5652 45.1677 92.3175 45.3928 92.2669 45.7193Z" fill="#263238"/>
<path d="M92.278 46.3496C92.4543 47.4476 92.7761 48.5171 93.2349 49.5301C92.9759 49.6326 92.6975 49.6772 92.4193 49.6606C92.1412 49.6441 91.8701 49.5669 91.625 49.4344L92.278 46.3496Z" fill="#DE5753"/>
<path d="M93.128 43.7377C93.088 43.7378 93.0488 43.7261 93.0155 43.704C92.8075 43.5769 92.5718 43.5023 92.3286 43.4866C92.0854 43.4709 91.842 43.5146 91.6194 43.6139C91.5708 43.6328 91.5168 43.6323 91.4685 43.6124C91.4203 43.5925 91.3816 43.5547 91.3605 43.5069C91.3416 43.4583 91.3421 43.4043 91.362 43.356C91.3819 43.3078 91.4197 43.2691 91.4675 43.248C91.752 43.1258 92.0619 43.0743 92.3706 43.0978C92.6794 43.1214 92.9779 43.2192 93.2406 43.3831C93.262 43.3973 93.2803 43.4155 93.2945 43.4369C93.3087 43.4583 93.3184 43.4823 93.3232 43.5075C93.3279 43.5327 93.3275 43.5586 93.322 43.5836C93.3166 43.6087 93.3061 43.6324 93.2913 43.6533C93.273 43.6796 93.2486 43.701 93.2201 43.7157C93.1917 43.7304 93.1601 43.738 93.128 43.7377Z" fill="#263238"/>
<path d="M80.879 46.9634C81.5882 49.9918 82.3932 55.5309 80.3555 57.5517C80.3555 57.5517 81.3012 60.6196 86.9246 60.6196C93.1166 60.6196 89.7392 57.5517 89.7392 57.5517C86.3336 56.7468 86.3223 54.2418 86.8177 51.8945L80.879 46.9634Z" fill="#E4897B"/>
<path d="M79.5898 58.6042C79.1057 57.636 78.5765 56.5215 79.5898 56.1725C80.6818 55.7897 86.7444 55.4013 88.8665 56.1162C89.432 56.2674 89.9163 56.633 90.2168 57.1352C90.5174 57.6375 90.6105 58.2371 90.4765 58.8069L79.5898 58.6042Z" fill="#3CC7F5"/>
<path opacity="0.6" d="M79.5898 58.6042C79.1057 57.636 78.5765 56.5215 79.5898 56.1725C80.6818 55.7897 86.7444 55.4013 88.8665 56.1162C89.432 56.2674 89.9163 56.633 90.2168 57.1352C90.5174 57.6375 90.6105 58.2371 90.4765 58.8069L79.5898 58.6042Z" fill="#FAFAFA"/>
<path d="M71.4899 199.833C71.1265 199.831 70.7643 199.792 70.4091 199.715C70.3909 199.712 70.374 199.703 70.3609 199.69C70.3478 199.677 70.3391 199.66 70.3359 199.642C70.3322 199.623 70.3339 199.603 70.3409 199.585C70.3479 199.567 70.3598 199.552 70.3753 199.54C70.4203 199.507 71.5011 198.73 72.1316 198.865C72.1997 198.877 72.2643 198.904 72.3208 198.944C72.3772 198.984 72.4241 199.035 72.4581 199.096C72.5088 199.163 72.5362 199.245 72.5362 199.329C72.5362 199.414 72.5088 199.496 72.4581 199.563C72.323 199.782 71.9121 199.833 71.4899 199.833ZM70.6849 199.574C71.3041 199.675 72.1485 199.675 72.3174 199.445C72.3174 199.445 72.3849 199.355 72.2892 199.191C72.2686 199.156 72.2402 199.125 72.2061 199.101C72.172 199.078 72.1331 199.063 72.0922 199.056C71.581 199.089 71.0912 199.273 70.6849 199.585V199.574Z" fill="#FAFAFA"/>
<path d="M70.4319 199.731H70.3812C70.3665 199.723 70.3545 199.71 70.3465 199.696C70.3386 199.681 70.335 199.664 70.3362 199.647C70.3362 199.596 70.3868 198.403 70.854 198.009C70.9101 197.959 70.9763 197.921 71.0482 197.899C71.1201 197.876 71.1959 197.87 71.2706 197.879C71.3465 197.879 71.42 197.906 71.4786 197.954C71.5372 198.002 71.5771 198.069 71.5915 198.144C71.6815 198.605 70.8934 199.506 70.4656 199.737L70.4319 199.731ZM71.203 198.043C71.1221 198.043 71.0442 198.073 70.9835 198.127C70.7074 198.505 70.5541 198.959 70.5444 199.427C70.9497 199.106 71.4507 198.425 71.4001 198.155C71.4001 198.127 71.4001 198.059 71.2481 198.043H71.203Z" fill="#FAFAFA"/>
<path d="M96.3249 199.833C95.8981 199.833 95.4723 199.793 95.0528 199.715C95.033 199.712 95.0148 199.702 95.0007 199.688C94.9866 199.674 94.9772 199.656 94.974 199.636C94.9708 199.617 94.9734 199.597 94.9814 199.579C94.9894 199.561 95.0025 199.545 95.019 199.535C95.2273 199.416 97.0624 198.364 97.5071 199.09C97.5516 199.153 97.5755 199.229 97.5755 199.307C97.5755 199.384 97.5516 199.46 97.5071 199.523C97.3832 199.771 96.8541 199.833 96.3249 199.833ZM95.3624 199.568C96.1392 199.681 97.1862 199.664 97.3663 199.411C97.3663 199.411 97.4226 199.332 97.3382 199.191C97.0905 198.792 95.9759 199.27 95.3624 199.58V199.568Z" fill="#FAFAFA"/>
<path d="M95.0701 199.732C95.0517 199.737 95.0322 199.737 95.0138 199.732C94.9997 199.722 94.9886 199.708 94.9817 199.692C94.9747 199.676 94.9722 199.659 94.9744 199.641C94.9744 199.596 95.042 198.482 95.5373 198.048C95.6124 197.98 95.702 197.929 95.7994 197.9C95.8969 197.87 95.9997 197.863 96.1002 197.88C96.3761 197.908 96.4549 198.048 96.4717 198.161C96.5506 198.639 95.6105 199.512 95.1151 199.737L95.0701 199.732ZM96.0158 198.043C95.8908 198.041 95.77 198.088 95.678 198.172C95.3821 198.535 95.2105 198.983 95.1883 199.45C95.6837 199.146 96.3141 198.454 96.2747 198.167C96.2747 198.139 96.2747 198.065 96.0721 198.043H96.0158Z" fill="#FAFAFA"/>
<path d="M90.5215 199.63H94.6589L94.6983 190.055H90.5665L90.5215 199.63Z" fill="#E4897B"/>
<path d="M65.6914 199.63H69.8288L71.54 190.055H67.4027L65.6914 199.63Z" fill="#E4897B"/>
<path d="M70.1047 199.152H65.4607C65.3786 199.151 65.2988 199.179 65.2358 199.232C65.1728 199.284 65.1308 199.358 65.1173 199.439L64.4418 203.115C64.4279 203.206 64.434 203.299 64.4597 203.388C64.4854 203.476 64.5301 203.558 64.5906 203.628C64.6511 203.697 64.726 203.753 64.8102 203.791C64.8943 203.829 64.9857 203.848 65.0779 203.847C66.6991 203.818 67.4815 203.723 69.5249 203.723C70.7802 203.723 73.3752 203.858 75.1146 203.858C76.854 203.858 77.006 202.169 76.2911 201.983C73.0769 201.285 71.8385 200.323 70.7858 199.411C70.5979 199.244 70.3557 199.152 70.1047 199.152Z" fill="#263238"/>
<path d="M94.6134 199.152H90.1101C90.028 199.151 89.9482 199.179 89.8852 199.232C89.8222 199.284 89.7802 199.358 89.7668 199.439L89.0913 203.115C89.0755 203.205 89.0799 203.298 89.1042 203.387C89.1285 203.475 89.172 203.558 89.2317 203.628C89.2914 203.697 89.3657 203.753 89.4494 203.791C89.5332 203.829 89.6242 203.848 89.7161 203.847C91.3429 203.818 93.6902 203.723 95.7392 203.723C98.1372 203.723 100.209 203.858 103.018 203.858C104.706 203.858 105.117 202.169 104.402 201.983C101.138 201.274 98.4919 201.201 95.6323 199.478C95.3298 199.277 94.9769 199.163 94.6134 199.152Z" fill="#263238"/>
<path d="M72.4696 58.4863C68.6249 59.3757 64.5889 69.9415 64.5889 69.9415L72.5766 75.2779C74.4104 72.4973 76.018 69.5739 77.3838 66.5359C79.4947 61.7005 76.3931 57.58 72.4696 58.4863Z" fill="#3CC7F5"/>
<path opacity="0.7" d="M72.4696 58.4863C68.6249 59.3757 64.5889 69.9415 64.5889 69.9415L72.5766 75.2779C74.4104 72.4973 76.018 69.5739 77.3838 66.5359C79.4947 61.7005 76.3931 57.58 72.4696 58.4863Z" fill="black"/>
<path d="M75.5035 65.2241L72.1992 75.0244L72.5764 75.2777C72.5764 75.2777 74.085 73.0261 75.6893 70.0257L75.5035 65.2241Z" fill="#3CC7F5"/>
<path opacity="0.8" d="M75.5035 65.2241L72.1992 75.0244L72.5764 75.2777C72.5764 75.2777 74.085 73.0261 75.6893 70.0257L75.5035 65.2241Z" fill="black"/>
<path d="M98.2679 76.9608C98.2341 81.5767 97.9583 87.3184 97.2715 94.4448H75.1492C74.8621 91.0674 76.3594 74.484 72.4697 58.4861C74.9029 58.0145 77.3643 57.7023 79.8382 57.5517C82.9692 57.3714 86.1079 57.3714 89.2388 57.5517C91.3981 57.7616 93.5378 58.138 95.6391 58.6775C95.6391 58.6775 97.5305 60.7265 98.1047 70.3354C98.2172 72.2549 98.2792 74.439 98.2679 76.9608Z" fill="#3CC7F5"/>
<path opacity="0.7" d="M98.2679 76.9608C98.2341 81.5767 97.9583 87.3184 97.2715 94.4448H75.1492C74.8621 91.0674 76.3594 74.484 72.4697 58.4861C74.9029 58.0145 77.3643 57.7023 79.8382 57.5517C82.9692 57.3714 86.1079 57.3714 89.2388 57.5517C91.3981 57.7616 93.5378 58.138 95.6391 58.6775C95.6391 58.6775 97.5305 60.7265 98.1047 70.3354C98.2172 72.2549 98.2792 74.439 98.2679 76.9608Z" fill="black"/>
<path d="M98.2676 76.961C96.9279 74.518 94.4961 69.615 94.8395 66.8286L98.1044 70.3637C98.2169 72.2551 98.2789 74.4392 98.2676 76.961Z" fill="#3CC7F5"/>
<path opacity="0.8" d="M98.2676 76.961C96.9279 74.518 94.4961 69.615 94.8395 66.8286L98.1044 70.3637C98.2169 72.2551 98.2789 74.4392 98.2676 76.961Z" fill="black"/>
<path d="M91.3039 62.4376C90.9549 66.378 99.8883 75.8574 99.8883 75.8574L107.049 70.0257C105.173 66.861 102.926 63.9318 100.356 61.3006C96.1675 57.2532 91.6979 58.0244 91.3039 62.4376Z" fill="#3CC7F5"/>
<path opacity="0.7" d="M91.3039 62.4376C90.9549 66.378 99.8883 75.8574 99.8883 75.8574L107.049 70.0257C105.173 66.861 102.926 63.9318 100.356 61.3006C96.1675 57.2532 91.6979 58.0244 91.3039 62.4376Z" fill="black"/>
<path d="M94.6982 190.061L94.6757 194.992H90.5439L90.5608 190.061H94.6982Z" fill="#CE6F64"/>
<path d="M67.4023 190.061H71.5397L70.6559 194.992H66.5186L67.4023 190.061Z" fill="#CE6F64"/>
<path d="M81.6218 42.3023C81.0195 46.3777 80.4622 48.7194 82.0271 51.3088C82.5245 52.1474 83.242 52.8338 84.1017 53.2937C84.9614 53.7536 85.9306 53.9695 86.9043 53.9179C87.8779 53.8663 88.8189 53.5492 89.6252 53.0009C90.4315 52.4527 91.0723 51.6943 91.4783 50.8078C93.0939 47.4304 93.8144 41.3284 90.2625 38.7503C89.513 38.1716 88.6243 37.8004 87.6858 37.6741C86.7473 37.5479 85.7922 37.6709 84.9163 38.031C84.0405 38.391 83.275 38.9753 82.6966 39.7251C82.1183 40.4749 81.7476 41.3637 81.6218 42.3023Z" fill="#E4897B"/>
<path d="M93.8651 40.3717C92.6469 41.037 91.3065 41.4487 89.9248 41.5819C88.8946 46.2935 86.1533 51.7143 81.7175 50.1551C80.0288 49.5921 78.3401 45.4998 78.1656 41.869C77.8728 42.2237 77.6758 42.6852 77.5238 42.8766C77.2707 41.2631 77.4534 39.6112 78.053 38.0919C79.2801 34.6131 80.0963 36.921 81.4304 34.8101C82.2917 33.4141 83.8228 32.6936 86.4966 32.6035C85.748 32.9919 85.6072 33.6168 86.7162 33.5267C87.8251 33.4366 92.5592 33.1777 95.3174 35.0409C93.4542 35.4631 94.5913 38.4184 97.0793 36.8422C96.1731 38.3114 95.0472 39.7074 93.8651 40.3717Z" fill="#263238"/>
<path d="M86.7383 44.8245C86.7541 45.8609 87.1013 46.865 87.729 47.6897C88.5678 48.7705 89.5303 48.2526 89.7611 47.0367C89.9638 45.956 89.7611 44.0871 88.7141 43.4341C87.6671 42.7811 86.7327 43.5861 86.7383 44.8245Z" fill="#E4897B"/>
<path d="M81.6952 35.2493C81.1334 35.2137 80.5889 35.0411 80.1091 34.7468C79.6293 34.4524 79.2288 34.0452 78.9426 33.5605C78.9426 33.5605 78.8694 36.8592 81.6952 35.2493Z" fill="#1E2A4C"/>
<path d="M89.4189 94.4449C89.4189 94.4449 85.9513 126.047 83.8292 137.885C81.51 150.832 72.571 194.041 72.571 194.041H64.9717C64.9717 194.041 70.3644 151.895 71.4902 139.039C72.7004 125.107 75.1716 94.4224 75.1716 94.4224L89.4189 94.4449Z" fill="#3CC7F5"/>
<path opacity="0.6" d="M89.4189 94.4449C89.4189 94.4449 85.9513 126.047 83.8292 137.885C81.51 150.832 72.571 194.041 72.571 194.041H64.9717C64.9717 194.041 70.3644 151.895 71.4902 139.039C72.7004 125.107 75.1716 94.4224 75.1716 94.4224L89.4189 94.4449Z" fill="#FAFAFA"/>
<path d="M73.6457 191.249C73.6795 191.249 72.9758 194.159 72.9758 194.159H64.459L64.5153 191.564L73.6457 191.249Z" fill="#3CC7F5"/>
<path opacity="0.1" d="M73.6457 191.249C73.6795 191.249 72.9758 194.159 72.9758 194.159H64.459L64.5153 191.564L73.6457 191.249Z" fill="#FAFAFA"/>
<path d="M86.8913 105.703C81.5042 106.767 82.8608 127.003 83.9135 137.412C85.1969 130.054 86.9419 115.897 88.1184 105.849C87.7375 105.664 87.3051 105.612 86.8913 105.703Z" fill="#3CC7F5"/>
<path opacity="0.4" d="M86.8913 105.703C81.5042 106.767 82.8608 127.003 83.9135 137.412C85.1969 130.054 86.9419 115.897 88.1184 105.849C87.7375 105.664 87.3051 105.612 86.8913 105.703Z" fill="#FAFAFA"/>
<path d="M97.2655 94.4448C97.2655 94.4448 99.0331 125.36 99.0669 137.975C99.1063 151.09 96.1848 194.041 96.1848 194.041H89.1765C89.1765 194.041 87.2908 151.856 86.4802 138.977C85.6021 124.932 82.7256 94.4448 82.7256 94.4448H97.2655Z" fill="#3CC7F5"/>
<path opacity="0.6" d="M97.2655 94.4448C97.2655 94.4448 99.0331 125.36 99.0669 137.975C99.1063 151.09 96.1848 194.041 96.1848 194.041H89.1765C89.1765 194.041 87.2908 151.856 86.4802 138.977C85.6021 124.932 82.7256 94.4448 82.7256 94.4448H97.2655Z" fill="#FAFAFA"/>
<path d="M98.9599 90.4707L96.9953 90.6283C96.8353 90.6417 96.6802 90.6907 96.5415 90.7715C96.4027 90.8524 96.2837 90.9632 96.1932 91.0958C96.1026 91.2284 96.0427 91.3796 96.0179 91.5382C95.993 91.6969 96.0039 91.8591 96.0496 92.0131L96.8602 94.7432C96.9286 94.965 97.0496 95.167 97.2129 95.332C97.3762 95.497 97.5769 95.6202 97.798 95.6909C98.0191 95.7617 98.2541 95.778 98.4828 95.7384C98.7116 95.6988 98.9274 95.6046 99.1119 95.4637C100.127 94.5192 100.854 93.3076 101.212 91.968L98.9599 90.4707Z" fill="#E4897B"/>
<path d="M94.5236 189.008C94.5047 189.006 94.4874 188.996 94.475 188.982C94.4626 188.967 94.4559 188.949 94.4561 188.929C95.2329 177.046 97.0342 148.287 97.0004 137.975C97.0004 127.42 95.717 103.812 95.3117 96.8261C95.3109 96.8168 95.3121 96.8074 95.3151 96.7985C95.3182 96.7897 95.323 96.7815 95.3294 96.7747C95.3357 96.7678 95.3434 96.7623 95.352 96.7585C95.3606 96.7548 95.3699 96.7529 95.3792 96.7529C95.3977 96.7529 95.4155 96.7598 95.4291 96.7723C95.4427 96.7849 95.451 96.8021 95.4524 96.8205C95.8352 103.806 97.0905 127.415 97.1411 137.975C97.1749 148.293 95.3736 177.052 94.5968 188.941C94.5968 188.95 94.5949 188.959 94.5912 188.968C94.5874 188.977 94.5819 188.984 94.5751 188.991C94.5682 188.997 94.56 189.002 94.5512 189.005C94.5423 189.008 94.5329 189.009 94.5236 189.008Z" fill="#3CC7F5"/>
<path opacity="0.3" d="M94.5236 189.008C94.5047 189.006 94.4874 188.996 94.475 188.982C94.4626 188.967 94.4559 188.949 94.4561 188.929C95.2329 177.046 97.0342 148.287 97.0004 137.975C97.0004 127.42 95.717 103.812 95.3117 96.8261C95.3109 96.8168 95.3121 96.8074 95.3151 96.7985C95.3182 96.7897 95.323 96.7815 95.3294 96.7747C95.3357 96.7678 95.3434 96.7623 95.352 96.7585C95.3606 96.7548 95.3699 96.7529 95.3792 96.7529C95.3977 96.7529 95.4155 96.7598 95.4291 96.7723C95.4427 96.7849 95.451 96.8021 95.4524 96.8205C95.8352 103.806 97.0905 127.415 97.1411 137.975C97.1749 148.293 95.3736 177.052 94.5968 188.941C94.5968 188.95 94.5949 188.959 94.5912 188.968C94.5874 188.977 94.5819 188.984 94.5751 188.991C94.5682 188.997 94.56 189.002 94.5512 189.005C94.5423 189.008 94.5329 189.009 94.5236 189.008Z" fill="#FAFAFA"/>
<path d="M97.4231 191.249C97.4569 191.249 97.1417 194.159 97.1417 194.159H88.6192L88.2871 191.564L97.4231 191.249Z" fill="#3CC7F5"/>
<path opacity="0.1" d="M97.4231 191.249C97.4569 191.249 97.1417 194.159 97.1417 194.159H88.6192L88.2871 191.564L97.4231 191.249Z" fill="#FAFAFA"/>
</svg>
